<?xml version="1.0" encoding="utf-8"?>
<!-- Generator: Adobe Illustrator 15.0.2, SVG Export Plug-In . SVG Version: 6.00 Build 0)  -->
<!DOCTYPE svg PUBLIC "-//W3C//DTD SVG 1.1//EN" "http://www.w3.org/Graphics/SVG/1.1/DTD/svg11.dtd">
<svg version="1.1" id="Layer_1" xmlns="http://www.w3.org/2000/svg" xmlns:xlink="http://www.w3.org/1999/xlink" x="0px" y="0px"
	 width="46px" height="46px" viewBox="0 0 46 46" enable-background="new 0 0 46 46" xml:space="preserve">
<g>
	<g>
		<g>
			<g enable-background="new    ">
				<g enable-background="new    ">
					<defs>
						<path id="SVGID_1_" enable-background="new    " d="M23.061,23.003c-0.019-0.001-0.058-0.002-0.083,0.02
							c0.003-0.003,0.019-0.022,0.02-0.06c0,1.899,0,3.883,0,5.924c-3.278-0.017-5.868-2.606-5.884-5.884
							c0.02-3.292,2.609-5.877,5.884-5.894c3.282,0.015,5.875,2.611,5.893,5.894c-0.015,3.268-2.608,5.868-5.893,5.884
							c0-2.041,0-4.024,0-5.924c0.005,0.019,0.008,0.037,0.021,0.052c-0.018-0.013-0.048-0.013-0.049-0.013
							c0.017-0.004,0.033-0.008,0.045-0.02c-0.006,0.007-0.01,0.017-0.013,0.025v-0.001c-0.003,0.01-0.005,0.021-0.005,0.03
							c0-0.011,0-0.038-0.017-0.063C22.988,22.98,23.014,23.001,23.061,23.003z"/>
					</defs>
					<clipPath id="SVGID_2_">
						<use xlink:href="#SVGID_1_"  overflow="visible"/>
					</clipPath>
					<g clip-path="url(#SVGID_2_)" enable-background="new    ">
						<path fill="#1D5F7B" d="M23.061,23.003c-0.019,0.002-0.051-0.006-0.063,0.008c0,1.852,0,3.835,0,5.876
							c-3.278-0.017-5.868-2.606-5.884-5.884c0.02-3.292,2.609-5.877,5.884-5.894c3.282,0.015,5.875,2.611,5.893,5.894
							c-0.015,3.268-2.608,5.868-5.893,5.884c0-2.041,0-4.024,0-5.924c0,0.019-0.014,0.05,0.001,0.061
							C23.016,23.034,23.042,23.009,23.061,23.003"/>
						<path fill="#1D5F7B" d="M22.999,22.963L23,22.969l0.001,0.008l0.019,0.038l0,0h0l-0.003-0.002l-0.035-0.01l-0.005-0.001
							h-0.005L22.98,23l0.037-0.018l0,0.001l-0.001,0.001l-0.002,0.005l-0.008,0.018l-0.002,0.009l-0.003,0.021v-0.011
							c-0.004-0.016-0.008-0.038-0.017-0.052l0.003,0.003c0.022,0.01,0.052,0.022,0.077,0.025l-0.019-0.001
							c-0.016,0.003-0.037,0.006-0.051,0.013l-0.005,0.003C22.99,23.001,22.998,22.979,22.999,22.963c0,1.815,0,3.709,0,5.655
							c-0.14,0.001-0.326,0.002-0.466,0.003c-4.798-0.197-6.473-6.077-4.186-8.357c0.93-0.927,1.84-0.193,2.013-0.037
							c0.297,0.268,0.594,0.834,0.989,0.894c0.04,0.006,0.085-0.04,0.122-0.057c0.154-0.072,0.715-0.29,1.491-0.104
							c0.66,0.158,1.124,0.61,1.341,0.867c0.6,0.705,0.683,1.325,0.694,1.442c0.068,0.749-0.116,1.209-0.283,1.463
							c-0.039,0.06-0.129,0.126-0.129,0.197c0.001,0.148,0.192,0.288,0.274,0.411c0.907,1.362,0.694,1.857,0.539,2.219
							c-0.004,0.009-0.481,0.924-2.4,1.06C22.999,26.672,22.999,24.778,22.999,22.963"/>
						<path fill="#1D5E79" d="M22.999,22.963L23,22.969l0.001,0.008c0.005,0.012,0.011,0.028,0.019,0.038l0,0h0l-0.003-0.002
							c-0.01-0.004-0.024-0.009-0.035-0.01l-0.005-0.001h-0.005L22.98,23c0.011-0.005,0.027-0.011,0.037-0.018l0,0.001l-0.001,0.001
							l-0.002,0.005l-0.008,0.018l-0.002,0.009l-0.003,0.021v-0.011c-0.003-0.017-0.01-0.037-0.017-0.052l0.003,0.003
							c0.031,0.018,0.039,0.022,0.077,0.025l-0.019-0.001c-0.016,0.002-0.037,0.007-0.051,0.013l-0.005,0.003
							C22.991,23.001,22.997,22.979,22.999,22.963c0,0.897,0,1.813,0,2.744c-0.073,0.071-0.17,0.165-0.244,0.236
							c-1.182,1.002-3.298-0.374-3.19-2.073c0.031-0.491,0.235-0.79,0.356-0.969c0.011-0.017,0.027-0.039,0.041-0.054
							c0.178-0.184,0.438-0.251,0.616-0.434c0.164-0.168,0.226-0.402,0.374-0.58c0.153-0.184,0.389-0.346,0.703-0.481
							c0.125-0.054,1.257-0.498,2.288,0.626c0.646,0.703,0.857,1.382,0.666,2.137c-0.16,0.63-0.707,1.171-1.361,1.345
							c-0.102,0.027-0.191,0.159-0.25,0.246C22.999,24.775,22.999,23.86,22.999,22.963"/>
						<path fill="#1C5C78" d="M22.999,22.963L23,22.969l0.001,0.008c0.004,0.013,0.012,0.028,0.019,0.038l0,0h0l-0.003-0.002
							c-0.01-0.004-0.024-0.009-0.035-0.01l-0.005-0.001h-0.005L22.98,23c0.011-0.004,0.027-0.011,0.037-0.018l0,0.001l-0.001,0.001
							l-0.002,0.005c-0.002,0.005-0.006,0.013-0.008,0.019v-0.001l-0.002,0.009l-0.003,0.021v-0.011
							c-0.002-0.019-0.007-0.036-0.017-0.052l0.003,0.003c0.025,0.016,0.037,0.021,0.077,0.025l-0.019-0.001
							c-0.018,0.002-0.035,0.005-0.051,0.013l-0.005,0.003C22.991,23,22.998,22.982,22.999,22.963c0,0.285,0,0.571,0,0.859
							c-0.002,0.008-0.005,0.018-0.007,0.025c-0.056,0.409,0.103,1.099-0.216,1.361c-0.005,0.004-0.811,0.14-1.545-0.615
							c-0.294-0.302-0.556-0.906-0.489-1.476c0.155-1.318,1.704-2.454,3.135-0.656c0.152,0.191,0.614,0.771,0.438,1.48
							c-0.242,0.972-1.091,1.182-1.099,1.177c-0.534-0.315-0.083-0.874-0.216-1.297C22.999,23.534,22.999,23.248,22.999,22.963"/>
						<path fill="#1B5B76" d="M22.999,22.963L23,22.969l0.001,0.008c0.004,0.014,0.009,0.027,0.019,0.038l0,0h0l-0.003-0.002
							c-0.01-0.004-0.024-0.009-0.035-0.01l-0.005-0.001h-0.005L22.98,23c0.013-0.005,0.026-0.009,0.037-0.018l0,0.001l-0.001,0.001
							l-0.002,0.005c-0.002,0.005-0.006,0.013-0.008,0.019v-0.001l-0.002,0.009c-0.001,0.007-0.002,0.015-0.003,0.021v-0.011
							c-0.002-0.019-0.006-0.036-0.017-0.052l0.003,0.003c0.025,0.016,0.037,0.021,0.077,0.025l-0.019-0.001
							c-0.018,0.002-0.033,0.013-0.051,0.013l-0.005,0.003C22.991,22.999,22.998,22.982,22.999,22.963c0,0.262,0,0.525,0,0.79
							c-0.008,0.027-0.019,0.065-0.027,0.094c-0.049,0.307,0.067,0.815-0.163,1.024c-0.1,0.09-1.85-0.1-1.732-1.736
							c0.007-0.101,0.097-0.995,1.021-1.241c0.192-0.051,0.48-0.032,0.685,0.046c0.005,0.002,0.59,0.271,0.813,0.522
							c0.032,0.036,0.098,0.111,0.163,0.248c0.032,0.066,0.213,0.536,0.213,0.539c0.047,0.156,0.089,0.331,0.041,0.601
							c-0.121,0.676-0.805,0.945-0.832,0.93c-0.271-0.156-0.089-0.729-0.182-1.026C22.999,23.488,22.999,23.225,22.999,22.963"/>
						<path fill="#1B5A74" d="M22.999,22.963L23,22.969l0.001,0.008c0.004,0.014,0.01,0.027,0.019,0.038l0,0h0l-0.003-0.002
							c-0.011-0.005-0.023-0.009-0.035-0.01l-0.005-0.001h-0.005L22.98,23c0.013-0.005,0.026-0.01,0.037-0.018l0,0.001l-0.001,0.001
							l-0.002,0.005c-0.003,0.005-0.006,0.013-0.008,0.018l-0.002,0.009c-0.001,0.007-0.002,0.015-0.003,0.021v-0.011
							c-0.002-0.019-0.006-0.036-0.017-0.052l0.003,0.003c0.025,0.016,0.037,0.021,0.077,0.025l-0.019-0.001
							c-0.018,0.002-0.033,0.013-0.051,0.013l-0.005,0.003C22.991,22.999,22.998,22.982,22.999,22.963c0,0.239,0,0.479,0,0.72
							c-0.014,0.049-0.033,0.114-0.047,0.162c-0.033,0.207,0.043,0.547-0.11,0.69c-0.131,0.124-1.491-0.108-1.44-1.288
							c0.018-0.406,0.24-0.886,0.697-1.041c0.142-0.048,0.273-0.046,0.336-0.046c0.006,0,0.014,0.001,0.02,0.001
							c0.077,0.008,0.15,0.04,0.227,0.048c0.101,0.011,0.203-0.014,0.303,0.008c0.109,0.024,0.337,0.075,0.541,0.307
							c0.163,0.186,0.218,0.395,0.236,0.503c0.021,0.127-0.029,0.727-0.03,0.731c-0.097,0.491-0.58,0.683-0.584,0.681
							c-0.204-0.109-0.079-0.536-0.148-0.758C22.999,23.441,22.999,23.202,22.999,22.963"/>
						<path fill="#1A5973" d="M22.999,22.963L23,22.969l0.001,0.008c0.004,0.014,0.01,0.027,0.019,0.038l0,0h0l-0.003-0.002
							c-0.011-0.005-0.023-0.009-0.035-0.01l-0.005-0.001h-0.005L22.98,23c0.013-0.005,0.026-0.01,0.037-0.018l0,0.001l-0.001,0.001
							l-0.002,0.005c-0.003,0.005-0.006,0.013-0.008,0.018l-0.002,0.009c-0.001,0.007-0.002,0.015-0.003,0.021v-0.011
							c-0.002-0.019-0.006-0.036-0.017-0.052l0.003,0.003c0.024,0.017,0.046,0.023,0.077,0.025l-0.019-0.001
							c-0.018,0.002-0.033,0.013-0.051,0.013l-0.005,0.003C22.991,22.999,22.998,22.982,22.999,22.963c0,0.216,0,0.433,0,0.65
							c-0.02,0.069-0.046,0.161-0.066,0.23c-0.017,0.106,0.02,0.28-0.057,0.356c-0.09,0.09-1.106-0.016-1.143-0.873
							c-0.019-0.443,0.253-0.745,0.429-0.831c0.125-0.061,0.44-0.203,0.681-0.199c0.032,0,0.321,0.011,0.543,0.218
							c0.768,0.714-0.231,1.607-0.272,1.587c-0.136-0.065-0.069-0.346-0.114-0.49C22.999,23.396,22.999,23.179,22.999,22.963"/>
						<path fill="#195771" d="M22.999,22.963L23,22.969l0.001,0.008c0.004,0.015,0.009,0.027,0.019,0.038l0,0h0l-0.003-0.002
							c-0.011-0.006-0.022-0.01-0.035-0.01l-0.005-0.001h-0.005L22.98,23c0.013-0.004,0.026-0.009,0.037-0.018l0,0.001l-0.001,0.001
							l-0.002,0.005c-0.003,0.005-0.006,0.013-0.008,0.018l-0.002,0.009c-0.001,0.007-0.002,0.015-0.003,0.021v-0.011
							c-0.002-0.019-0.006-0.036-0.017-0.052l0.003,0.003c0.024,0.017,0.046,0.023,0.077,0.025l-0.019-0.001
							c-0.018,0.002-0.033,0.013-0.051,0.013l-0.005,0.003c-0.002,0.001-0.005,0.004-0.007,0.005
							C22.984,23.015,22.997,22.997,22.999,22.963c0,0.193,0,0.387,0,0.581c-0.02,0.075-0.047,0.174-0.067,0.248
							c-0.008,0.022-0.007,0.059-0.022,0.075c-0.035,0.038-0.812,0.119-0.852-0.604c-0.002-0.045,0.006-0.145,0.028-0.212
							l0.145-0.321c0.028-0.05,0.107-0.176,0.258-0.256c0.214-0.115,0.566-0.129,0.833,0.11c0.055,0.049,0.323,0.314,0.242,0.736
							c-0.073,0.38-0.464,0.505-0.479,0.497c-0.077-0.039-0.066-0.189-0.086-0.273C22.999,23.35,22.999,23.156,22.999,22.963"/>
						<path fill="#195670" d="M22.999,22.963L23,22.969l0.001,0.008c0.004,0.015,0.009,0.027,0.019,0.038l0,0h0l-0.003-0.002
							c-0.011-0.006-0.022-0.01-0.035-0.01l-0.005-0.001h-0.005L22.98,23c0.013-0.004,0.026-0.009,0.037-0.018l0,0.001l-0.001,0.001
							l-0.002,0.005c-0.003,0.005-0.006,0.013-0.008,0.019v-0.001l-0.002,0.009c-0.001,0.007-0.002,0.015-0.003,0.021v-0.011
							c-0.002-0.019-0.006-0.036-0.017-0.052l0.003,0.003c0.024,0.017,0.046,0.023,0.077,0.025l-0.019-0.001
							c-0.018,0.002-0.033,0.013-0.051,0.013l-0.005,0.003c-0.002,0.001-0.004,0.003-0.006,0.004
							C22.988,23.009,22.997,22.992,22.999,22.963c0,0.17,0,0.341,0,0.512c-0.018,0.065-0.042,0.152-0.06,0.218
							c-0.005,0.014-0.005,0.038-0.018,0.047c-0.002,0.001-0.314,0.031-0.525-0.211c-0.126-0.145-0.182-0.361-0.141-0.552
							c0.134-0.623,0.861-0.591,1.112-0.198c0.148,0.232,0.133,0.429,0.094,0.553c-0.1,0.316-0.385,0.378-0.388,0.377
							c-0.065-0.033-0.058-0.162-0.075-0.233C22.999,23.304,22.999,23.133,22.999,22.963"/>
						<path fill="#18556E" d="M22.999,22.963L23,22.969l0.001,0.008c0.004,0.015,0.009,0.027,0.019,0.038l0,0h0l-0.003-0.002
							c-0.011-0.006-0.022-0.01-0.035-0.01l-0.005-0.001h-0.005L22.98,23c0.013-0.004,0.026-0.009,0.037-0.018l0,0.001l-0.001,0.001
							l-0.002,0.005c-0.003,0.005-0.006,0.013-0.008,0.019v-0.001l-0.002,0.009c-0.001,0.007-0.002,0.015-0.003,0.021v-0.011
							c-0.002-0.019-0.006-0.036-0.017-0.052l0.003,0.003c0.024,0.017,0.046,0.023,0.077,0.025l-0.019-0.001
							c-0.018,0.002-0.033,0.013-0.051,0.013l-0.005,0.003c-0.001,0.001-0.003,0.002-0.004,0.003
							C22.99,23.002,22.998,22.983,22.999,22.963c0,0.147,0,0.295,0,0.442c-0.015,0.056-0.036,0.129-0.051,0.184
							c-0.004,0.012-0.004,0.032-0.015,0.039c-0.002,0.002-0.243,0.038-0.443-0.166c-0.108-0.111-0.149-0.302-0.134-0.425
							c0.065-0.517,0.628-0.595,0.91-0.24c0.053,0.067,0.171,0.248,0.113,0.475c-0.068,0.267-0.314,0.328-0.316,0.326
							c-0.055-0.026-0.049-0.134-0.064-0.193C22.999,23.258,22.999,23.11,22.999,22.963"/>
						<path fill="#17536D" d="M22.999,22.963L23,22.969l0.001,0.008c0.004,0.015,0.009,0.027,0.019,0.038l0,0h0l-0.003-0.002
							c-0.011-0.006-0.022-0.01-0.035-0.01l-0.005-0.001h-0.005L22.98,23c0.013-0.004,0.026-0.009,0.037-0.018l0,0.001l-0.001,0.001
							l-0.002,0.005c-0.003,0.006-0.006,0.012-0.008,0.019v-0.001l-0.002,0.009c-0.001,0.007-0.002,0.015-0.003,0.021v-0.011
							c-0.002-0.019-0.006-0.036-0.017-0.052l0.003,0.003c0.024,0.017,0.046,0.023,0.077,0.025l-0.019-0.001
							c-0.018,0.002-0.033,0.013-0.051,0.013l-0.005,0.003c-0.001,0.001-0.003,0.002-0.004,0.003
							C22.99,23.002,22.998,22.983,22.999,22.963c0,0.124,0,0.249,0,0.374c-0.013,0.044-0.03,0.104-0.042,0.149
							c-0.004,0.009-0.004,0.025-0.013,0.031c-0.001,0.001-0.204,0.036-0.369-0.132c-0.086-0.089-0.122-0.25-0.107-0.354
							c0.062-0.425,0.516-0.466,0.736-0.162c0.11,0.153,0.108,0.287,0.087,0.373c-0.046,0.191-0.237,0.249-0.239,0.248
							c-0.044-0.021-0.041-0.106-0.053-0.153C22.999,23.212,22.999,23.087,22.999,22.963"/>
						<path fill="#16526B" d="M22.999,22.963L23,22.969l0.001,0.008c0.004,0.015,0.009,0.027,0.019,0.038l0,0h0l-0.003-0.002
							c-0.011-0.006-0.022-0.01-0.035-0.01l-0.005-0.001h-0.005L22.98,23c0.013-0.004,0.026-0.009,0.037-0.018l0,0.001l-0.001,0.001
							l-0.002,0.005c-0.003,0.006-0.006,0.012-0.008,0.019v-0.001l-0.002,0.009c-0.001,0.007-0.002,0.015-0.003,0.021v-0.011
							c-0.002-0.019-0.006-0.036-0.017-0.052l0.003,0.003c0.031,0.023,0.065,0.024,0.077,0.025l-0.019-0.001
							c-0.018,0.002-0.033,0.013-0.051,0.013l-0.005,0.003c-0.002,0.001-0.005,0.003-0.007,0.005
							C22.985,23.014,22.997,22.995,22.999,22.963c0,0.102,0,0.203,0,0.305c-0.01,0.034-0.024,0.081-0.034,0.115
							c-0.003,0.007-0.003,0.02-0.01,0.024c-0.001,0.001-0.166,0.034-0.295-0.098c-0.068-0.07-0.094-0.199-0.08-0.284
							c0.05-0.288,0.366-0.377,0.571-0.071c0.194,0.288-0.104,0.43-0.11,0.428c-0.034-0.015-0.032-0.079-0.042-0.114
							C22.999,23.166,22.999,23.064,22.999,22.963"/>
						<path fill="#155169" d="M22.999,22.963c0,0.002,0.001,0.004,0.001,0.006l0.001,0.008c0.004,0.015,0.009,0.027,0.019,0.038l0,0
							h0l-0.003-0.002c-0.011-0.006-0.022-0.01-0.035-0.01l-0.005-0.001h-0.005L22.98,23c0.013-0.004,0.026-0.008,0.037-0.018
							l0,0.001l-0.001,0.001l-0.002,0.005c-0.003,0.006-0.006,0.012-0.008,0.019v-0.001l-0.002,0.009
							c-0.001,0.007-0.002,0.015-0.003,0.021v-0.011c-0.002-0.019-0.006-0.036-0.017-0.052l0.003,0.003
							c0.031,0.023,0.065,0.024,0.077,0.025l-0.019-0.001c-0.018,0.002-0.033,0.013-0.051,0.013l-0.005,0.003
							c-0.002,0.001-0.005,0.003-0.007,0.005C22.985,23.014,22.997,22.995,22.999,22.963c0,0.078,0,0.157,0,0.235
							c-0.008,0.024-0.018,0.057-0.026,0.082c-0.002,0.005-0.003,0.014-0.007,0.017c-0.015,0.011-0.311,0.026-0.275-0.271
							c0.021-0.182,0.222-0.245,0.33-0.105c0.012,0.016,0.013,0.036,0.028,0.049c0.021,0.018,0.043,0.036,0.058,0.061
							c0.009,0.016,0.029,0.049,0.03,0.085c0.003,0.114-0.104,0.158-0.105,0.157c-0.023-0.008-0.023-0.051-0.031-0.074
							C22.999,23.12,22.999,23.041,22.999,22.963"/>
						<g>
							<path fill="#154F68" d="M23,23.023c-0.001,0.004-0.001,0.01-0.001,0.014v-0.011c-0.002-0.019-0.006-0.036-0.017-0.052
								l0.003,0.003c0.031,0.023,0.065,0.024,0.077,0.025l-0.019-0.001c-0.018,0.002-0.033,0.013-0.051,0.013l-0.005,0.003
								c-0.002,0.001-0.005,0.003-0.007,0.005c0.003-0.003,0.019-0.022,0.02-0.06c0,0.056,0,0.111,0,0.167
								c-0.005,0.014-0.012,0.033-0.017,0.047c-0.001,0.003-0.002,0.008-0.005,0.01c-0.009,0.008-0.195,0.041-0.179-0.145
								c0.007-0.075,0.096-0.184,0.176-0.09c0.013,0.016,0.03,0.045,0.027,0.064C23,23.019,23,23.021,23,23.023"/>
							<path fill="#154F68" d="M22.999,22.963c0,0.002,0.001,0.004,0.001,0.006l0.001,0.008c0.004,0.015,0.009,0.027,0.019,0.038
								l0,0h0l-0.003-0.002c-0.011-0.006-0.022-0.01-0.035-0.01l-0.005-0.001h-0.005c0.001-0.001,0.003-0.001,0.005-0.001
								c0.087,0.005,0.124,0.095,0.06,0.15c-0.005,0.004-0.011,0.015-0.017,0.014c-0.012-0.003-0.015-0.024-0.021-0.036
								C22.999,23.074,22.999,23.019,22.999,22.963"/>
						</g>
						<g>
							<path fill="#144E66" d="M22.987,22.979c0.022,0.015,0.045,0.022,0.074,0.023l-0.019-0.001
								c-0.018,0.002-0.033,0.013-0.051,0.013l-0.005,0.003c-0.002,0.001-0.005,0.003-0.007,0.005
								c0.003-0.003,0.019-0.022,0.02-0.06c0,0.032,0,0.065,0,0.098c-0.002,0.004-0.006,0.01-0.009,0.014
								c-0.009,0.013-0.077,0.036-0.085-0.01c-0.01-0.049,0.041-0.114,0.081-0.087C22.986,22.979,22.986,22.979,22.987,22.979
								L22.987,22.979"/>
							<path fill="#144E66" d="M22.999,22.963c0,0.002,0.001,0.004,0.001,0.006l0.001,0.008c0.003,0.01,0.006,0.02,0.011,0.028
								l0.004,0.008c0.001,0.006,0.008,0.037-0.018,0.048C22.999,23.028,22.999,22.995,22.999,22.963"/>
						</g>
						<g>
							<path fill="#134D64" d="M22.999,22.963c0,0.01,0,0.02,0,0.028c0-0.006,0-0.014,0-0.02v-0.001L22.999,22.963L22.999,22.963"/>
							<path fill="#134D64" d="M23.061,23.003c-0.016-0.001-0.031,0-0.047,0.003l0.004-0.001c0.008-0.002,0.016-0.004,0.024-0.004
								l0.01,0.002H23.061"/>
							<path fill="#134D64" d="M22.999,22.963c0.002,0.009,0,0.021,0,0.028C22.999,22.982,22.999,22.973,22.999,22.963"/>
						</g>
						<path fill="#3D6A84" d="M25.353,23.84c0.176-1.518-1.088-3.111-2.601-3.28c-0.053-0.006-0.147,0.025-0.176-0.02
							c-0.013-0.021,0.315-1.648,2.27-1.198c1.839,0.424,2.777,3.104,1.454,4.157C25.845,23.86,25.356,23.843,25.353,23.84
							C25.354,23.84,25.354,23.84,25.353,23.84"/>
						<path fill="#486F89" d="M24.885,21.358c-0.025-0.029-0.059-0.066-0.084-0.095c0.062,0.059,0.134,0.146,0.185,0.215
							C24.955,21.442,24.916,21.394,24.885,21.358"/>
					</g>
				</g>
				<g enable-background="new    ">
					<defs>
						<path id="SVGID_3_" enable-background="new    " d="M42.114,23.003c0,10.548-8.559,19.106-19.116,19.106
							C33.556,42.109,42.114,33.551,42.114,23.003z"/>
					</defs>
					<clipPath id="SVGID_4_">
						<use xlink:href="#SVGID_3_"  overflow="visible"/>
					</clipPath>
					<g clip-path="url(#SVGID_4_)" enable-background="new    ">
						<path fill="#0B4359" d="M42.114,23.003c0,0.854-0.057,1.696-0.165,2.521C42.058,24.699,42.114,23.857,42.114,23.003"/>
						<path fill="#0A4157" d="M41.949,25.524c-0.132,0.996-0.34,1.969-0.619,2.91C41.609,27.493,41.817,26.521,41.949,25.524"/>
						<path fill="#084055" d="M41.33,28.435c-0.331,1.116-0.761,2.189-1.279,3.211C40.569,30.624,40.999,29.551,41.33,28.435"/>
						<path fill="#073F54" d="M40.051,31.646c-3.157,6.208-9.607,10.464-17.052,10.464C30.443,42.109,36.894,37.854,40.051,31.646"
							/>
					</g>
				</g>
				<g enable-background="new    ">
					<defs>
						<path id="SVGID_5_" enable-background="new    " d="M23.061,23.003c-0.019-0.001-0.058-0.002-0.083,0.02
							c0.003-0.003,0.019-0.022,0.02-0.06c0-10.949,0-19.076,0-19.076c10.557,0,19.116,8.559,19.116,19.116
							c0,10.548-8.559,19.106-19.116,19.106S3.891,33.551,3.891,23.003c0-10.557,8.55-19.116,19.107-19.116c0,0,0,8.127,0,19.076
							c0.005,0.019,0.008,0.037,0.021,0.052c-0.018-0.013-0.047-0.013-0.049-0.013c0.017-0.004,0.033-0.008,0.045-0.02
							c-0.007,0.01-0.017,0.026-0.018,0.055c0-0.011,0-0.038-0.017-0.063C22.988,22.98,23.014,23.001,23.061,23.003z"/>
					</defs>
					<clipPath id="SVGID_6_">
						<use xlink:href="#SVGID_5_"  overflow="visible"/>
					</clipPath>
					<g clip-path="url(#SVGID_6_)" enable-background="new    ">
						<path fill="#647F96" d="M23.061,23.003c-0.063-10.989-0.063-19.116-0.063-19.116c10.557,0,19.116,8.559,19.116,19.116
							c0,10.548-8.559,19.106-19.116,19.106S3.891,33.551,3.891,23.003c0-10.557,8.55-19.116,19.107-19.116c0,0,0,8.127,0,19.076
							C23.015,22.979,23.042,22.991,23.061,23.003"/>
						<path fill="#647F96" d="M22.999,7.764c-0.311,1.607-0.311,1.607,0,2.872c0,3.269,0,7.527,0,12.327c0,0.001,0,0.002,0,0.003
							L23,22.969l0.001,0.008l0.019,0.038l0,0h0l-0.003-0.002l-0.045-0.011L22.98,23l0.037-0.018l0,0.001l-0.001,0.001l-0.002,0.005
							l-0.031-0.015l0.003,0.003c0.014-4.815,0.014-9.073,0.014-12.342l0.146,0.573c2.559,8.326,3.244,8.841,3.907,9.34
							c3.862,2.909,10.673,7.205,12.879,3.299c3.567-6.314-5.67-19.759-14.496-17.825C23.304,6.489,23.023,7.635,22.999,7.764
							c0-2.456,0-3.877,0-3.877c10.557,0,19.116,8.559,19.116,19.116c0,10.548-8.559,19.106-19.116,19.106
							S3.891,33.551,3.891,23.003c0-10.557,8.55-19.116,19.107-19.116C22.999,3.887,22.999,5.309,22.999,7.764"/>
						<path fill="#607C94" d="M22.999,6.786c-1.222,3.069-1.222,3.069,0,6.537c0,2.789,0,6.064,0,9.64c0,0.001,0,0.002,0,0.003
							L23,22.969l0.001,0.008l0.019,0.038l0,0h0l-0.003-0.002l-0.045-0.011L22.98,23l0.037-0.018l0,0.001l-0.001,0.001l-0.002,0.005
							l-0.031-0.015l0.003,0.003c0.014-3.591,0.014-6.866,0.014-9.655l0.105,0.286c2.746,7.492,2.746,7.492,2.89,7.582
							c12.079,7.473,13.117,5.169,14.12,2.941c3.628-8.052-6.852-20.464-15.361-18.192C24.737,5.943,23.13,6.454,22.999,6.786
							c0-1.851,0-2.899,0-2.899c10.557,0,19.116,8.559,19.116,19.116c0,10.548-8.559,19.106-19.116,19.106
							S3.891,33.551,3.891,23.003c0-10.557,8.55-19.116,19.107-19.116C22.999,3.887,22.999,4.935,22.999,6.786"/>
						<path fill="#5B7992" d="M22.999,6.301c-0.569,0.964-1.701,1.598-1.701,2.896c0,1.678,0.498,3.113,1.701,6.582
							c0,2.193,0,4.611,0,7.184c0,0.001,0,0.002,0,0.003L23,22.969l0.001,0.008l0.019,0.038l0,0h0l-0.003-0.002l-0.045-0.011
							L22.98,23l0.037-0.018l0,0.001l-0.001,0.001l-0.002,0.005l-0.031-0.015l0.003,0.003c0.014-2.588,0.014-5.006,0.014-7.199
							l0.179,0.491c0.27,0.769,0.722,2.057,0.863,2.961c0.367,2.352,0.374,2.397,1.042,2.736c10.573,5.369,13.085,6.645,14.97,2.871
							c4.308-8.62-6.795-21.731-16.054-18.958C23.687,5.973,23.164,6.02,22.999,6.301c0-1.548,0-2.414,0-2.414
							c10.557,0,19.116,8.559,19.116,19.116c0,10.548-8.559,19.106-19.116,19.106S3.891,33.551,3.891,23.003
							c0-10.557,8.55-19.116,19.107-19.116C22.999,3.887,22.999,4.753,22.999,6.301"/>
						<path fill="#56768F" d="M22.999,5.951c-0.179,0.303-0.719,0.397-1.028,0.567c-0.177,0.098-1.42,1.183-1.42,2.792
							c0,0.77,0,0.77,2.448,8.94c0,1.496,0,3.073,0,4.714c0,0.001,0,0.002,0,0.003L23,22.969l0.001,0.008l0.019,0.038l0,0h0
							l-0.003-0.002l-0.045-0.011L22.98,23l0.037-0.018l0,0.001l-0.001,0.001l-0.002,0.005l-0.031-0.015l0.003,0.003
							c0.014-1.655,0.014-3.232,0.014-4.729l0.273,0.894c0.491,1.979,2.034,3.652,2.048,3.664c1.588,1.315,3.656,1.631,5.407,2.606
							c1.537,0.854,4.734,2.633,6.369,2.255c4.4-1.018,3.881-7.214,3.732-8.445C39.246,6.127,23.794,4.603,22.999,5.951
							c0-1.328,0-2.064,0-2.064c10.557,0,19.116,8.559,19.116,19.116c0,10.548-8.559,19.106-19.116,19.106
							S3.891,33.551,3.891,23.003c0-10.557,8.55-19.116,19.107-19.116C22.999,3.887,22.999,4.623,22.999,5.951"/>
						<path fill="#50738C" d="M22.999,5.696c-0.095,0.13-0.358,0.113-0.512,0.162c-1.49,0.472-2.702,2.091-2.702,3.609
							c0,4.117,2.548,7.519,3.214,11.448c0,0.67,0,1.353,0,2.047c0,0.001,0,0.002,0,0.003L23,22.969l0.001,0.008l0.019,0.038l0,0h0
							l-0.003-0.002l-0.045-0.011L22.98,23l0.037-0.018l0,0.001l-0.001,0.001l-0.002,0.005l-0.031-0.015l0.003,0.003
							c0.014-0.708,0.014-1.392,0.014-2.062l0.177-0.097c0.651,0.273,1.708,1.54,1.992,2.252c0.032,0.081,8.102,6.487,12.688,5.026
							c2.094-0.666,4.714-5.72,2.048-12.605C35.777,4.84,23.661,4.791,22.999,5.696c0-1.167,0-1.81,0-1.81
							c10.557,0,19.116,8.559,19.116,19.116c0,10.548-8.559,19.106-19.116,19.106S3.891,33.551,3.891,23.003
							c0-10.557,8.55-19.116,19.107-19.116C22.999,3.887,22.999,4.529,22.999,5.696"/>
						<path fill="#486F89" d="M22.999,5.485c-0.226,0.313-0.855,0.282-1.221,0.403c-1.836,0.606-2.767,2.239-2.767,4.854
							c0,4.303,3.07,7.543,3.988,11.529c0,0.229,0,0.459,0,0.691c0,0.001,0,0.002,0,0.003L23,22.969l0.001,0.008l0.019,0.038l0,0h0
							l-0.003-0.002l-0.045-0.011L22.98,23l0.037-0.018l0,0.001l-0.001,0.001l-0.002,0.005l-0.031-0.015l0.003,0.003
							c0.014-0.246,0.014-0.477,0.014-0.706l0.008-0.033c0.048-0.352,0.102-0.824,0.181-1.171c0.541,0.378,1.63,1.504,1.877,2.403
							c0.13,0.475,3.549,2.571,5.013,3.451c2.876,1.729,4.869,2.397,6.463,2.169c3.797-0.544,5.311-5.9,4.342-10.561
							C38.06,4.947,23.589,4.668,22.999,5.485c0-1.033,0-1.599,0-1.599c10.557,0,19.116,8.559,19.116,19.116
							c0,10.548-8.559,19.106-19.116,19.106S3.891,33.551,3.891,23.003c0-10.557,8.55-19.116,19.107-19.116
							C22.999,3.887,22.999,4.452,22.999,5.485"/>
						<path fill="#3D6A84" d="M22.999,5.287c-0.232,0.313-0.871,0.265-1.244,0.378C19.56,6.333,18.31,8.322,18.21,9.942
							c-0.265,4.306,3.785,10.908,3.828,10.941c0.22,0.168,0.552-0.011,0.745,0.24c0.225,0.291,0.151,0.845,0.216,1.207
							c0,0.21,0,0.421,0,0.633c0,0.001,0,0.002,0,0.003L23,22.969l0.001,0.008l0.019,0.038l0,0h0l-0.003-0.002l-0.045-0.011
							L22.98,23l0.037-0.018l0,0.001l-0.001,0.001l-0.002,0.005l-0.031-0.015l0.003,0.003c0.014-0.227,0.014-0.438,0.014-0.648
							l0.023-0.09c0.042-0.271,0.098-0.632,0.14-0.902c0.477,0.386,0.477,0.386,1.769,2.954c0.099,0.197,12.512,11.387,15.648,1.335
							c2.307-7.397-2.082-13.258-3.482-14.878C31.164,3.885,23.198,5.018,22.999,5.287c0-0.907,0-1.4,0-1.4
							c10.557,0,19.116,8.559,19.116,19.116c0,10.548-8.559,19.106-19.116,19.106S3.891,33.551,3.891,23.003
							c0-10.557,8.55-19.116,19.107-19.116C22.999,3.887,22.999,4.38,22.999,5.287"/>
						<path fill="#1D5F7B" d="M22.999,5.125c-0.152,0.187-0.551,0.111-0.787,0.158c-0.457,0.092-4.474,1.013-4.817,4.988
							c-0.408,4.731,4.173,10.837,4.222,10.864c0.374,0.204,0.879-0.166,1.199,0.273c0.176,0.241,0.115,0.688,0.182,0.979
							c0,0.191,0,0.383,0,0.576c0,0.001,0,0.002,0,0.003L23,22.969l0.001,0.008l0.019,0.038l0,0h0l-0.003-0.002l-0.045-0.011
							L22.98,23l0.037-0.018l0,0.001l-0.001,0.001l-0.002,0.005l-0.031-0.015l0.003,0.003c0.014-0.207,0.014-0.399,0.014-0.59
							l0.038-0.147c0.029-0.19,0.068-0.443,0.098-0.633c0.724,0.651,0.724,0.651,1.48,3.024c0.063,0.196,10.706,11.387,15.439,2.633
							c2.511-4.646,1.002-11.497-1.836-15.182C31.394,3.224,23.049,5.063,22.999,5.125c0-0.804,0-1.238,0-1.238
							c10.557,0,19.116,8.559,19.116,19.116c0,10.548-8.559,19.106-19.116,19.106S3.891,33.551,3.891,23.003
							c0-10.557,8.55-19.116,19.107-19.116C22.999,3.887,22.999,4.321,22.999,5.125"/>
						<path fill="#1D5E79" d="M22.999,4.976c-0.26,0.32-0.943,0.198-1.348,0.283c-0.472,0.099-4.623,1.09-5.081,5.369
							c-0.54,5.034,4.423,10.807,4.657,10.875c1.667,0.492,1.667,0.492,1.771,0.942c0,0.172,0,0.345,0,0.518
							c0,0.001,0,0.002,0,0.003L23,22.969l0.001,0.008l0.019,0.038l0,0h0l-0.003-0.002l-0.045-0.011L22.98,23l0.037-0.018l0,0.001
							l-0.001,0.001l-0.002,0.005l-0.031-0.015l0.003,0.003c0.014-0.188,0.014-0.36,0.014-0.533l0.053-0.205
							c0.017-0.108,0.039-0.253,0.056-0.362c0.936,0.975,0.936,0.975,1.137,2.972c0.095,0.942,8.963,10.781,14.687,4.51
							c7.055-7.731-1.113-25.235-14.418-24.519C24.058,4.866,23.286,4.621,22.999,4.976c0-0.708,0-1.089,0-1.089
							c10.557,0,19.116,8.559,19.116,19.116c0,10.548-8.559,19.106-19.116,19.106S3.891,33.551,3.891,23.003
							c0-10.557,8.55-19.116,19.107-19.116C22.999,3.887,22.999,4.268,22.999,4.976"/>
						<path fill="#1C5C78" d="M22.999,4.835c-0.269,0.323-0.963,0.178-1.376,0.255c-0.217,0.04-5.324,1.04-5.925,5.966
							c-0.664,5.435,4.697,10.929,5.203,10.953c0.662,0.032,1.455-0.799,1.983-0.028l0.115,0.521c0,0.153,0,0.306,0,0.46
							c0,0.001,0,0.002,0,0.003L23,22.969l0.001,0.008l0.019,0.038l0,0h0l-0.003-0.002l-0.045-0.011L22.98,23l0.037-0.018l0,0.001
							l-0.001,0.001l-0.002,0.005l-0.031-0.015l0.003,0.003c0.014-0.168,0.014-0.322,0.014-0.475l0.057-0.23
							c0.74,0.16,1.58,1.639,0.785,2.699c-0.652,0.87,3.215,4.84,5.997,6.156c3.817,1.807,6.242,0.875,7.347,0.158
							c4.593-2.977,6.253-11.516,1.294-19.01C33.108,4.163,23.446,4.297,22.999,4.835c0-0.618,0-0.948,0-0.948
							c10.557,0,19.116,8.559,19.116,19.116c0,10.548-8.559,19.106-19.116,19.106S3.891,33.551,3.891,23.003
							c0-10.557,8.55-19.116,19.107-19.116C22.999,3.887,22.999,4.217,22.999,4.835"/>
						<path fill="#1B5B76" d="M22.999,4.699c-0.142,0.162-0.497,0.066-0.709,0.094c-1.125,0.149-6.77,1.185-7.507,6.952
							c-0.718,5.615,5.278,11.108,5.914,10.965c0.516-0.116,0.733-0.735,1.296-0.772c0.009,0,0.91-0.04,1.007,0.623
							c0,0.134,0,0.268,0,0.402c0,0.001,0,0.002,0,0.003L23,22.969l0.001,0.008l0.019,0.038l0,0h0l-0.003-0.002l-0.045-0.011
							L22.98,23l0.037-0.018l0,0.001l-0.001,0.001l-0.002,0.005l-0.031-0.015l0.003,0.003c0.014-0.149,0.014-0.283,0.014-0.417
							l0.051-0.213c1.553,0.484,0.611,1.939-0.012,2.903c-0.616,0.952,5.709,9.447,12.309,7.445C43.74,30.15,44.837,13.411,32,6.48
							C27.626,4.119,23.017,4.678,22.999,4.699c0-0.53,0-0.812,0-0.812c10.557,0,19.116,8.559,19.116,19.116
							c0,10.548-8.559,19.106-19.116,19.106S3.891,33.551,3.891,23.003c0-10.557,8.55-19.116,19.107-19.116
							C22.999,3.887,22.999,4.169,22.999,4.699"/>
						<path fill="#1B5A74" d="M22.999,4.569c-0.282,0.327-0.997,0.146-1.423,0.208c-0.714,0.104-6.993,1.204-7.728,7.758
							c-0.708,6.318,6.446,11.707,6.978,11.426c0.113-0.06,0.025-0.299,0.021-0.427c-0.047-1.348,1.703-1.518,2.081-1.189
							c0.064,0.056,0.06,0.189,0.072,0.274c0,0.115,0,0.229,0,0.344c0,0.001,0,0.002,0,0.003L23,22.969l0.001,0.008l0.019,0.038l0,0
							h0l-0.003-0.002l-0.045-0.011L22.98,23l0.037-0.018l0,0.001l-0.001,0.001l-0.002,0.005l-0.031-0.015l0.003,0.003
							c0.014-0.129,0.014-0.244,0.014-0.359l0.044-0.186c0.867,0.372,0.876,2.066-0.235,2.518c-0.467,0.189-0.852,0.057-1.06-0.015
							c0.607,5.854,11.539,13.206,17.311,5.525c3.847-5.118,3.008-12.579,0.265-17C32.889,3.087,23.062,4.497,22.999,4.569
							c0-0.446,0-0.683,0-0.683c10.557,0,19.116,8.559,19.116,19.116c0,10.548-8.559,19.106-19.116,19.106
							S3.891,33.551,3.891,23.003c0-10.557,8.55-19.116,19.107-19.116C22.999,3.887,22.999,4.123,22.999,4.569"/>
						<path fill="#1A5973" d="M22.999,4.451c-0.287,0.327-1.007,0.133-1.438,0.19c-1.053,0.14-4.681,0.86-7.163,4.262
							c-0.919,1.26-2.256,4.046-0.885,8.551c0.596,1.958,1.71,3.434,2.375,4.316c1.128,1.494,2.754,2.471,3.997,3.847
							c1.434,1.587,2.104,3.719,3.703,5.188c1.09,1.002,4.409,4.05,8.587,3.793c10.45-0.644,12.969-16.958,3.905-25.3
							C29.772,3.496,23.033,4.411,22.999,4.451c0-0.37,0-0.564,0-0.564c10.557,0,19.116,8.559,19.116,19.116
							c0,10.548-8.559,19.106-19.116,19.106S3.891,33.551,3.891,23.003c0-10.557,8.55-19.116,19.107-19.116
							C22.999,3.887,22.999,4.082,22.999,4.451"/>
						<path fill="#195771" d="M22.999,4.349c-0.137,0.149-0.47,0.04-0.672,0.057c-3.419,0.291-6.613,2.138-7.882,3.729
							c-1.033,1.293-3.45,4.323-2.092,9.555c1.465,5.646,10.352,14.186,10.441,14.271c1.504,1.425,4.947,3.522,8.269,3.46
							c11.325-0.215,14.619-17.316,5.036-26.142C29.821,3.498,23.034,4.311,22.999,4.349c0-0.303,0-0.462,0-0.462
							c10.557,0,19.116,8.559,19.116,19.116c0,10.548-8.559,19.106-19.116,19.106S3.891,33.551,3.891,23.003
							c0-10.557,8.55-19.116,19.107-19.116C22.999,3.887,22.999,4.046,22.999,4.349"/>
						<path fill="#195670" d="M22.999,4.263C22.7,4.594,21.964,4.37,21.521,4.415c-0.051,0.005-5.145,0.569-8.205,4.431
							c-1.514,1.91-3.064,5.191-1.857,9.977c0.682,2.704,8.732,17.986,19.595,17.369c10.56-0.601,15.474-17.339,5.063-26.932
							C29.791,3.43,23.034,4.225,22.999,4.263c0-0.248,0-0.376,0-0.376c10.557,0,19.116,8.559,19.116,19.116
							c0,10.548-8.559,19.106-19.116,19.106S3.891,33.551,3.891,23.003c0-10.557,8.55-19.116,19.107-19.116
							C22.999,3.887,22.999,4.016,22.999,4.263"/>
						<path fill="#18556E" d="M22.999,4.186c-0.299,0.331-1.035,0.104-1.478,0.147c-1.277,0.127-5.697,0.852-8.944,4.824
							c-1.296,1.585-3.297,5.043-2.134,10.388c1.399,6.432,10.678,18.219,19.693,17.439c11.911-1.029,16.9-18.647,4.9-28.706
							C29.717,3.82,23.029,4.151,22.999,4.186c0-0.197,0-0.299,0-0.299c10.557,0,19.116,8.559,19.116,19.116
							c0,10.548-8.559,19.106-19.116,19.106S3.891,33.551,3.891,23.003c0-10.557,8.55-19.116,19.107-19.116
							C22.999,3.887,22.999,3.989,22.999,4.186"/>
						<path fill="#17536D" d="M22.999,4.117c-0.299,0.33-1.034,0.099-1.478,0.142c-3.916,0.375-7.44,2.584-9.059,4.478
							C9.688,11.981,8.666,15.771,9.424,20c1.504,8.4,10.842,18.233,19.596,17.732c13.049-0.746,17.579-18.862,7.128-28.506
							C29.938,3.497,23.033,4.079,22.999,4.117c0-0.152,0-0.23,0-0.23c10.557,0,19.116,8.559,19.116,19.116
							c0,10.548-8.559,19.106-19.116,19.106S3.891,33.551,3.891,23.003c0-10.557,8.55-19.116,19.107-19.116
							C22.999,3.887,22.999,3.965,22.999,4.117"/>
						<path fill="#16526B" d="M22.999,4.08c-0.224,0.238-0.762,0.046-1.088,0.065c-2.832,0.171-6.995,1.29-10.748,5.651
							c-0.382,0.444-3.701,4.527-2.592,11.05c1.511,8.883,10.499,18.278,20.265,17.555C41.483,37.466,47.47,18.68,35.062,8.247
							C29.759,3.789,23.03,4.047,22.999,4.08c0-0.127,0-0.193,0-0.193c10.557,0,19.116,8.559,19.116,19.116
							c0,10.548-8.559,19.106-19.116,19.106S3.891,33.551,3.891,23.003c0-10.557,8.55-19.116,19.107-19.116
							C22.999,3.887,22.999,3.953,22.999,4.08"/>
						<path fill="#155169" d="M22.999,4.047c-0.313,0.335-1.067,0.074-1.524,0.105c-1.464,0.102-6.555,0.805-10.616,5.592
							c-2.687,3.169-3.706,7.268-3.026,12.184c1.029,7.442,9.332,17.804,20.001,17.101c13.644-0.9,20.345-19.765,7.235-30.792
							C29.749,3.762,23.03,4.014,22.999,4.047c10.557-0.16,19.116,8.399,19.116,18.956c0,10.548-8.559,19.106-19.116,19.106
							S3.891,33.551,3.891,23.003c0-10.557,8.55-19.116,19.107-19.116C22.999,3.887,22.999,3.941,22.999,4.047"/>
						<path fill="#154F68" d="M22.999,4.017c-0.314,0.335-1.07,0.07-1.529,0.1c-0.643,0.042-6.406,0.552-10.786,5.457
							c-2.839,3.18-4.198,7.781-3.636,12.308c1.276,10.285,10.602,18.386,20.364,17.69c13.894-0.99,20.898-20.206,7.665-31.344
							C29.611,3.628,23.03,3.984,22.999,4.017c10.557-0.13,19.116,8.429,19.116,18.986c0,10.548-8.559,19.106-19.116,19.106
							S3.891,33.551,3.891,23.003c0-10.557,8.55-19.116,19.107-19.116C22.999,3.887,22.999,3.931,22.999,4.017"/>
						<path fill="#1A5973" d="M22.999,22.963L23,22.969l0.001,0.008c0.004,0.014,0.01,0.027,0.019,0.038l0,0h0l-0.003-0.002
							c-0.014-0.006-0.029-0.011-0.045-0.011L22.98,23c0.013-0.005,0.026-0.01,0.037-0.018l0,0.001l-0.001,0.001l-0.002,0.005
							c-0.007,0.013-0.011,0.027-0.013,0.041c-0.002-0.02-0.007-0.038-0.018-0.056l0.003,0.003c0.026,0.018,0.043,0.021,0.067,0.025
							c-0.035,0.002-0.046,0.002-0.072,0.019C22.991,23.004,22.996,22.94,22.999,22.963c0-0.096,0-0.191,0-0.286l0.037-0.16
							c0.003-0.01,0.001-0.03,0.011-0.034c0.011-0.004,0.719,0.466,0.451,1.032c-0.109,0.229-0.082,0.509-0.258,0.715
							c-0.219,0.255-0.5,0.356-0.696,0.396c-0.398,0.081-0.969-0.171-1.184-0.675c-0.276-0.65,0.178-1.16,0.183-1.165
							c0.103-0.099,0.259-0.249,0.516-0.313c0.054-0.014,0.107-0.025,0.163-0.032c0.086-0.01,0.171,0.014,0.257,0.006
							c0.074-0.007,0.142-0.045,0.217-0.048c0.162-0.006,0.241,0.037,0.242,0.038c0.051,0.054,0.051,0.166,0.061,0.239
							C22.999,22.772,22.999,22.867,22.999,22.963"/>
						<path fill="#195771" d="M22.999,22.963L23,22.969l0.001,0.008c0.004,0.014,0.009,0.027,0.019,0.038l0,0h0l-0.003-0.002
							c-0.014-0.007-0.029-0.011-0.045-0.011L22.98,23c0.013-0.004,0.026-0.009,0.037-0.018l0,0.001l-0.001,0.001l-0.002,0.005
							c-0.007,0.013-0.011,0.027-0.013,0.041c-0.002-0.02-0.005-0.039-0.018-0.056l0.003,0.003c0.024,0.017,0.046,0.023,0.077,0.025
							c-0.038-0.001-0.055,0.002-0.08,0.018c0.008-0.016,0.014-0.033,0.017-0.051c0-0.083,0-0.159,0-0.235l0.03-0.132
							c0.003-0.008,0.001-0.025,0.009-0.028c0.01-0.003,0.623,0.407,0.367,0.918c-0.012,0.024-0.025,0.048-0.041,0.07
							c-0.042,0.061-0.107,0.102-0.15,0.163c-0.049,0.068-0.059,0.159-0.123,0.22c-0.042,0.04-0.263,0.24-0.45,0.267
							c-0.649,0.09-0.877-0.466-0.887-0.489c-0.185-0.467,0.149-0.819,0.188-0.857c0.023-0.024,0.118-0.088,0.126-0.093
							c0.079-0.043,0.17-0.056,0.251-0.097c0.083-0.042,0.144-0.12,0.235-0.15c0.067-0.022,0.224-0.074,0.396,0.005
							c0.002,0.001,0.006,0.002,0.008,0.004c0.038,0.048,0.035,0.139,0.042,0.2C22.999,22.811,22.999,22.887,22.999,22.963"/>
						<path fill="#144E66" d="M22.999,3.99c-0.316,0.336-1.074,0.066-1.534,0.095c-1.045,0.064-6.484,0.627-10.903,5.386
							c-1.435,1.546-4.711,5.846-4.146,12.378c0.891,10.289,9.731,18.455,19.706,18.205c15.012-0.378,21.5-20.279,10.06-30.862
							C29.828,3.313,23.034,3.953,22.999,3.99c10.557-0.104,19.116,8.456,19.116,19.013c0,10.548-8.559,19.106-19.116,19.106
							S3.891,33.551,3.891,23.003c0-10.557,8.55-19.116,19.107-19.116C22.999,3.887,22.999,3.922,22.999,3.99"/>
						<path fill="#195670" d="M22.999,22.963L23,22.969l0.001,0.008c0.004,0.015,0.009,0.027,0.019,0.038l0,0h0l-0.003-0.002
							c-0.014-0.007-0.029-0.011-0.045-0.011L22.98,23c0.013-0.004,0.026-0.009,0.037-0.018l0,0.001l-0.001,0.001l-0.002,0.005
							c-0.008,0.015-0.013,0.031-0.014,0.048c0-0.01,0-0.039-0.017-0.063l0.003,0.003c0.024,0.017,0.046,0.023,0.077,0.025
							c-0.039-0.001-0.055,0.002-0.08,0.018C22.991,23.003,22.996,22.941,22.999,22.963c0-0.057,0-0.113,0-0.17l0.023-0.105
							c0.002-0.007,0.005-0.016,0.007-0.022c0.016,0.013,0.396,0.321,0.355,0.598c-0.015,0.1-0.096,0.428-0.515,0.479
							c-0.004,0-0.009,0-0.013,0.001c-0.092,0.023-0.174,0.088-0.277,0.072c-0.107-0.016-0.222-0.047-0.331-0.165
							c-0.026-0.028-0.251-0.289-0.016-0.6c0.003-0.004,0.009-0.008,0.011-0.013c0.008-0.018,0.009-0.044,0.012-0.062
							c0.004-0.02,0.022-0.089,0.099-0.189c0.046-0.06,0.121-0.115,0.159-0.137c0.254-0.147,0.443-0.038,0.453-0.024
							c0.029,0.042,0.027,0.115,0.033,0.165C22.999,22.85,22.999,22.906,22.999,22.963"/>
						<path fill="#18556E" d="M22.999,22.963L23,22.969l0.001,0.008c0.004,0.015,0.009,0.027,0.019,0.038l0,0h0l-0.003-0.002
							c-0.014-0.007-0.029-0.011-0.045-0.011L22.98,23c0.013-0.004,0.026-0.009,0.037-0.018l0,0.001l-0.001,0.001l-0.002,0.005
							c-0.008,0.015-0.013,0.031-0.014,0.048c0-0.01,0-0.039-0.017-0.063l0.003,0.003c0.024,0.017,0.046,0.023,0.077,0.025
							c-0.023-0.001-0.051-0.002-0.08,0.018C22.99,23.002,22.996,22.941,22.999,22.963c0-0.037,0-0.075,0-0.112l0.016-0.078
							c0.001-0.005,0.003-0.011,0.005-0.016c0.04,0.041,0.068,0.091,0.104,0.136c0.029,0.037,0.069,0.063,0.1,0.098
							c0.01,0.012,0.021,0.027,0.031,0.039c0.008,0.01,0.015,0.02,0.021,0.03c0.045,0.09,0.027,0.173,0.015,0.228
							c-0.001,0.003-0.082,0.35-0.463,0.345c-0.363-0.004-0.691-0.508-0.326-0.85c0.088-0.083,0.229-0.133,0.334-0.118
							c0.148,0.021,0.151,0.049,0.165,0.187C22.999,22.888,22.999,22.926,22.999,22.963"/>
						<path fill="#17536D" d="M22.999,22.963L23,22.969l0.001,0.008c0.004,0.015,0.009,0.027,0.019,0.038l0,0h0l-0.003-0.002
							c-0.014-0.007-0.029-0.011-0.045-0.011L22.98,23c0.013-0.004,0.026-0.009,0.037-0.018l0,0.001l-0.001,0.001l-0.002,0.005
							c-0.008,0.015-0.013,0.031-0.014,0.048c0-0.01,0-0.039-0.017-0.063l0.003,0.003c0.031,0.023,0.065,0.024,0.077,0.025
							c-0.023-0.001-0.051-0.002-0.08,0.018C22.99,23.002,22.996,22.941,22.999,22.963c0-0.018,0-0.036,0-0.054l0.009-0.051
							c0.001-0.003,0.002-0.007,0.003-0.011c0.023,0.042,0.027,0.094,0.072,0.122c0.11,0.072,0.11,0.072,0.127,0.111
							c0.013,0.031,0.029,0.102-0.014,0.211c-0.07,0.177-0.256,0.267-0.442,0.212c-0.304-0.089-0.42-0.534-0.107-0.708
							c0.093-0.052,0.176-0.063,0.261-0.036c0.084,0.027,0.086,0.065,0.092,0.149C22.999,22.927,22.999,22.945,22.999,22.963"/>
						<g>
							<path fill="#16526B" d="M23.022,23.004c-0.017,0.003-0.032,0.008-0.044,0.019c0.001-0.002,0.018-0.021,0.02-0.059
								l0.002-0.022c0-0.001,0-0.002,0-0.002c0.001,0.021,0,0.043-0.008,0.063c-0.001,0.002-0.002,0.004-0.001,0.007
								c0.014,0.017,0.031-0.007,0.046-0.008C23.034,23.003,23.027,23.003,23.022,23.004"/>
							<path fill="#16526B" d="M23,22.969c0.003,0.017,0.008,0.033,0.02,0.046l0,0h0l-0.003-0.002
								c-0.014-0.008-0.029-0.011-0.045-0.011L22.98,23c0.013-0.004,0.026-0.009,0.037-0.018l0,0.001l-0.001,0.001l-0.002,0.005
								c-0.008,0.015-0.013,0.031-0.014,0.048c0-0.01,0-0.039-0.017-0.063l0.003,0.003c0.013,0.01,0.036,0.022,0.071,0.025l0,0
								c0.157,0.024,0.091,0.291-0.023,0.357c-0.267,0.157-0.495-0.12-0.455-0.3c0.063-0.284,0.354-0.262,0.406-0.173
								c0.009,0.015,0.015,0.025,0.015,0.077l0,0.002L23,22.969"/>
						</g>
						<path fill="#155169" d="M23.004,22.985c0.004,0.011,0.009,0.021,0.016,0.029l0,0h0l-0.003-0.002
							c-0.014-0.008-0.029-0.011-0.045-0.011L22.98,23c0.013-0.004,0.026-0.008,0.037-0.018l0,0.001l-0.001,0.001l-0.002,0.005
							c-0.008,0.015-0.013,0.031-0.014,0.048c0-0.01,0-0.039-0.017-0.063l0.003,0.003c0.01,0.008,0.022,0.013,0.034,0.018h0
							c0.11,0.054,0.061,0.259-0.072,0.297c-0.125,0.035-0.332-0.114-0.231-0.303c0.051-0.095,0.246-0.139,0.286-0.014l0.002,0.008
							L23.004,22.985"/>
						<path fill="#154F68" d="M23.017,23.011c0.001,0.001,0.002,0.003,0.003,0.004l0,0h0l-0.003-0.002
							c-0.014-0.008-0.029-0.011-0.045-0.011L22.98,23c0.013-0.004,0.026-0.008,0.037-0.018l0,0.001l-0.001,0.001l-0.002,0.005
							c-0.008,0.015-0.013,0.031-0.014,0.048c0-0.01,0-0.039-0.017-0.063l0.003,0.003l0.002,0.001l0.007,0.007
							c0.072,0.085,0.02,0.214-0.081,0.202c-0.072-0.008-0.173-0.118-0.069-0.203c0.034-0.028,0.127-0.042,0.17,0.021L23.017,23.011
							L23.017,23.011"/>
						<path fill="#134D64" d="M22.999,3.966c-0.317,0.336-1.077,0.063-1.539,0.089c-1.062,0.062-6.59,0.619-11.202,5.534
							C7.207,12.841,5.55,17.654,5.934,22.15c0.909,10.617,9.774,18.642,20.183,18.268c14.981-0.537,21.475-20.677,10.069-31.232
							C29.83,3.303,23.034,3.929,22.999,3.966c10.557-0.08,19.116,8.479,19.116,19.037c0,10.548-8.559,19.106-19.116,19.106
							S3.891,33.551,3.891,23.003c0-10.557,8.55-19.116,19.107-19.116C22.999,3.887,22.999,3.914,22.999,3.966"/>
						<g>
							<polyline fill="#144E66" points="22.997,23.015 22.997,23.015 22.999,23.024 22.999,23.028 22.998,23.017 22.997,23.015 
															"/>
							<path fill="#144E66" d="M23.014,23.011c-0.014-0.006-0.027-0.009-0.042-0.009L22.98,23c0.013-0.004,0.026-0.008,0.037-0.018
								l0,0.001l-0.001,0.001l-0.002,0.005c-0.008,0.015-0.013,0.03-0.014,0.047l-0.001,0.014c-0.011,0.047-0.063,0.038-0.082,0.006
								c-0.026-0.044,0.03-0.066,0.075-0.054C22.998,23.004,23.006,23.008,23.014,23.011L23.014,23.011"/>
						</g>
						<polyline fill="#134D64" points="23.013,22.985 23.017,22.982 23.016,22.983 23.015,22.984 23.015,22.984 23.013,22.986 
							23.013,22.985 23.013,22.985 23.013,22.985 						"/>
						<path fill="#124B63" d="M22.999,3.945c-0.319,0.337-1.08,0.06-1.542,0.085c-8.08,0.445-16.398,7.825-15.905,18.101
							c0.492,10.24,9.292,18.764,19.216,18.613c16.047-0.243,23.231-19.578,11.646-31.346C30.637,3.529,23.038,3.904,22.999,3.945
							c10.557-0.059,19.116,8.5,19.116,19.058c0,10.548-8.559,19.106-19.116,19.106S3.891,33.551,3.891,23.003
							c0-10.557,8.55-19.116,19.107-19.116C22.999,3.887,22.999,3.907,22.999,3.945"/>
						<path fill="#114A61" d="M22.999,3.93c-0.291,0.305-0.981,0.045-1.401,0.065c-2.504,0.116-7.748,1.398-11.514,5.473
							c-5.2,5.625-4.909,11.656-4.813,13.638c0.424,8.77,8.545,18.268,19.521,17.877c17.282-0.614,22.362-21.655,11.403-31.804
							C29.843,3.296,23.034,3.894,22.999,3.93c10.557-0.043,19.116,8.516,19.116,19.073c0,10.548-8.559,19.106-19.116,19.106
							S3.891,33.551,3.891,23.003c0-10.557,8.55-19.116,19.107-19.116C22.999,3.887,22.999,3.901,22.999,3.93"/>
						<path fill="#688299" d="M35.802,24.502c-0.068-0.026-7.068-2.932-9.105-6.18c-0.021-0.036-2.735-6.453-3.045-8.192
							c-0.193-1.084-0.457-2.569,0.974-3.452c1.568-0.967,6.759-1.275,11.968,4.113c3.438,3.557,4.614,9.048,3.556,11.946
							C39.185,25.374,37.489,25.144,35.802,24.502"/>
						<path fill="#10485F" d="M22.999,3.917c-0.322,0.338-1.088,0.053-1.554,0.075c-3.363,0.163-8.364,2.076-11.415,5.419
							c-4.732,5.185-5.166,10.067-4.967,14.16c0.426,8.757,8.962,18.148,19.749,17.61c17.535-0.875,22.477-21.733,11.385-32.005
							C29.838,3.288,23.034,3.88,22.999,3.917c10.557-0.031,19.116,8.528,19.116,19.085c0,10.548-8.559,19.106-19.116,19.106
							S3.891,33.551,3.891,23.003c0-10.557,8.55-19.116,19.107-19.116C22.999,3.887,22.999,3.897,22.999,3.917"/>
						<path fill="#6B849B" d="M36.864,24.092c-0.061-0.015-6.789-2.499-9.508-6.604c-0.057-0.086-5.202-8.925-2.01-10.792
							c4.855-2.838,17.356,6.433,14.777,15.348C39.768,23.276,39.074,24.623,36.864,24.092"/>
						<path fill="#0F475E" d="M22.999,3.907c-0.323,0.338-1.09,0.051-1.557,0.072c-8.214,0.38-17.074,8.138-16.654,18.662
							c0.426,10.676,9.081,18.893,19.705,18.706c16.183-0.286,23.73-21.032,11.705-32.171C29.839,3.285,23.034,3.87,22.999,3.907
							c10.557-0.02,19.116,8.539,19.116,19.096c0,10.548-8.559,19.106-19.116,19.106S3.891,33.551,3.891,23.003
							c0-10.557,8.55-19.116,19.107-19.116C22.999,3.887,22.999,3.894,22.999,3.907"/>
						<path fill="#6F879D" d="M36.901,23.358c-0.056-0.017-6.649-3.186-8.509-6.008c-0.057-0.086-5.556-8.727-2.403-10.55
							c4.396-2.542,16.202,6.325,14.083,14.562C39.377,24.068,37.579,23.552,36.901,23.358"/>
						<path fill="#0D465C" d="M22.999,3.898c-0.324,0.338-1.091,0.049-1.559,0.069c-2.046,0.091-7.335,0.875-12.259,6.163
							c-1.809,1.943-4.8,6.275-4.513,13.458c0.308,7.688,7.373,18.184,19.836,17.896c11.619-0.27,21.365-12.211,16.174-25.764
							c0.926,2.245,1.437,4.704,1.437,7.282c0,10.548-8.559,19.106-19.116,19.106S3.891,33.551,3.891,23.003
							c0-10.557,8.55-19.116,19.107-19.116C22.999,3.887,22.999,3.891,22.999,3.898"/>
						<path fill="#72899F" d="M36.901,22.612c-0.052-0.017-5.527-2.272-8.37-6.61c-0.049-0.075-4.846-7.563-1.905-9.072
							c4.641-2.38,15.035,6.792,13.369,13.759C39.534,22.62,38.637,23.177,36.901,22.612"/>
						<path fill="#0C445A" d="M22.999,3.893c-0.324,0.338-1.093,0.047-1.561,0.067c-3.885,0.167-8.843,2.456-11.531,5.323
							c-2.455,2.617-5.683,6.947-5.386,14.313c0.362,8.998,8.484,18.38,19.997,18.006c9.865-0.321,19.384-9.486,17.273-22.123
							c0.213,1.143,0.324,2.321,0.324,3.525c0,10.548-8.559,19.106-19.116,19.106S3.891,33.551,3.891,23.003
							c0-10.557,8.55-19.116,19.107-19.116C22.999,3.887,22.999,3.889,22.999,3.893"/>
						<path fill="#758BA1" d="M36.859,21.85c-0.047-0.018-5.002-2.223-7.797-6.519c-0.748-1.149-4.348-6.947-1.81-8.247
							c0.996-0.51,5.011-0.535,9.133,3.892c3.391,3.642,3.861,8.001,3.36,9.525C39.282,21.912,38.685,22.544,36.859,21.85"/>
						<path fill="#0B4359" d="M22.999,3.889c-0.325,0.338-1.094,0.045-1.563,0.065c-3.892,0.163-8.862,2.44-11.56,5.297
							c-1.592,1.686-5.82,6.165-5.49,14.349c0.367,9.069,8.171,18.567,20.141,18.1c6.696-0.263,17.392-5.681,17.583-19.104
							c0.003,0.136,0.004,0.271,0.004,0.407c0,10.548-8.559,19.106-19.116,19.106S3.891,33.551,3.891,23.003
							c0-10.557,8.55-19.116,19.107-19.116C22.999,3.887,22.999,3.887,22.999,3.889"/>
						<path fill="#788EA2" d="M37.761,21.403c-1.384-0.172-5.76-3.198-7.63-5.874c-0.827-1.183-4.822-7.142-2.252-8.265
							c1.78-0.778,5.945,0.79,8.647,3.978c3.926,4.631,3.413,8.656,2.794,9.521C39.026,21.175,38.263,21.466,37.761,21.403"/>
						<path fill="#0A4157" d="M22.999,3.887c-0.325,0.339-1.095,0.045-1.564,0.064c-3.898,0.159-8.877,2.426-11.583,5.275
							c-1.463,1.54-5.915,6.227-5.584,14.38c0.372,9.165,8.227,18.722,20.269,18.181c7.568-0.341,15.98-6.036,17.413-16.264
							c-1.234,9.358-9.248,16.587-18.951,16.587c-10.557,0-19.107-8.559-19.107-19.106C3.891,12.446,12.441,3.887,22.999,3.887
							L22.999,3.887"/>
						<path fill="#7B90A4" d="M37.666,20.687c-1.239-0.225-4.96-2.676-7.649-6.563c-0.158-0.229-3.85-5.614-1.489-6.643
							c1.558-0.679,5.446,0.87,7.941,3.813c3.634,4.287,3.277,7.998,2.745,8.794C38.938,20.501,38.156,20.775,37.666,20.687"/>
						<path fill="#084055" d="M19.26,4.252C1.197,8.604-0.412,30.288,12.781,38.739c10.911,6.989,24.517,2.081,28.547-10.297
							c-2.345,7.9-9.664,13.667-18.33,13.667c-10.557,0-19.107-8.559-19.107-19.106c0-9.762,7.311-17.816,16.759-18.974
							C20.233,4.097,19.674,4.169,19.26,4.252"/>
						<path fill="#7E92A6" d="M37.526,19.926c-1.168-0.256-3.726-1.559-7.729-7.401c-0.026-0.039-2.614-3.922-0.633-4.802
							c1.472-0.654,5.195,1.208,7.244,3.623c2.972,3.503,3.313,7.058,2.67,8.063C38.813,19.823,38.006,20.031,37.526,19.926"/>
						<path fill="#8194A8" d="M38.042,19.243c-3.86-0.433-9.678-8.931-8.842-10.671c1.052-2.188,7.929,1.666,9.556,7.108
							C39.834,19.287,38.061,19.245,38.042,19.243"/>
						<path fill="#073F54" d="M15.768,5.303c-16.889,7.282-14.415,29.326,0.07,35.221c7.621,3.102,18.444,1.654,24.199-8.851
							c-3.161,6.193-9.604,10.437-17.038,10.437c-10.557,0-19.107-8.559-19.107-19.106c0-8.558,5.619-15.803,13.37-18.24
							c-0.422,0.151-0.985,0.353-1.407,0.504C15.829,5.279,15.793,5.292,15.768,5.303"/>
						<path fill="#8496A9" d="M37.087,18.305c-2.493-0.874-7.951-7.58-7.161-9.398c0.135-0.311,1.006-1.709,4.911,1.263
							c1.092,0.831,2.616,2.42,3.684,5.277c0.01,0.027,0.953,2.672-0.479,3.037C37.759,18.556,37.362,18.401,37.087,18.305"/>
						<path fill="#8698AB" d="M36.732,17.352c-2.102-0.925-6.595-6.529-6.041-8.035c0.085-0.229,0.369-0.478,0.604-0.548
							c0.02-0.006,2.34-0.118,4.83,2.823c2.371,2.8,2.562,5.002,2.283,5.577c-0.106,0.222-0.382,0.486-0.623,0.533
							C37.458,17.766,37.037,17.486,36.732,17.352"/>
						<path fill="#899AAC" d="M36.841,16.571c-2.67-1.169-5.611-6.012-5.354-6.781c0.076-0.227,0.358-0.484,0.593-0.533
							c0.016-0.003,1.96,0.092,3.939,2.428c0.364,0.431,1.123,1.326,1.506,2.194c0.443,1.008,0.53,2.42,0.527,2.426
							c-0.104,0.213-0.398,0.436-0.633,0.471C37.236,16.804,37.01,16.645,36.841,16.571"/>
						<path fill="#8B9CAE" d="M36.154,15.314c-0.91-0.582-1.731-1.497-2.073-1.945c-0.286-0.376-0.626-0.713-0.858-1.131
							c-0.009-0.015-0.795-1.577-0.749-1.758c0.058-0.225,0.32-0.498,0.547-0.551c0.305-0.071,2.095,1.024,2.835,1.897
							c1.694,1.998,1.689,3.424,1.686,3.434c-0.086,0.216-0.405,0.426-0.638,0.441C36.651,15.717,36.367,15.451,36.154,15.314"/>
						<path fill="#8E9EB0" d="M35.978,14.163c-0.435-0.034-2.218-2.463-2.2-2.578c0.035-0.229,0.277-0.544,0.506-0.581
							c0.073-0.012,1.267,1.069,1.276,1.08c0.28,0.329,1.162,1.566,1.107,1.724C36.59,14.026,36.21,14.18,35.978,14.163"/>
						<path fill="#0D465C" d="M31.862,6.062c-1.79-0.851-4.495-2.137-8.864-2.164c3.699-0.012,7.153,1.039,10.079,2.858
							C32.713,6.548,32.234,6.256,31.862,6.062"/>
						<path fill="#0C445A" d="M28.52,4.696c-1.569-0.405-3.051-0.787-5.521-0.804c2.306-0.006,4.517,0.402,6.564,1.151
							C29.25,4.939,28.836,4.79,28.52,4.696"/>
						<path fill="#0B4359" d="M24.895,3.98c-0.568-0.045-1.327-0.087-1.896-0.091c1.222-0.002,2.417,0.113,3.574,0.332
							c-0.455-0.067-1.063-0.157-1.518-0.224C25.006,3.991,24.942,3.984,24.895,3.98"/>
						<path fill="#0A4157" d="M22.999,3.887c0.229,0,0.457,0.004,0.683,0.012C23.477,3.895,23.142,4.033,22.999,3.887"/>
					</g>
				</g>
				<g>
					<path fill="#195670" d="M22.999,28.887c-3.278-0.017-5.868-2.606-5.884-5.884c0.02-3.292,2.609-5.877,5.884-5.894
						c3.282,0.015,5.875,2.611,5.893,5.894C28.877,26.271,26.283,28.871,22.999,28.887z"/>
				</g>
			</g>
		</g>
	</g>
	<g>
		<rect x="9.418" y="15.683" fill="#231F20" stroke="#231F20" stroke-miterlimit="10" width="5.813" height="14.53"/>
		<polygon fill="#231F20" points="26.244,30.138 15.906,22.874 26.244,15.611 		"/>
		<polygon fill="#231F20" points="36.582,30.138 26.244,22.874 36.582,15.611 		"/>
	</g>
</g>
</svg>
