<?xml version="1.0" encoding="utf-8"?>
<!-- Generator: Adobe Illustrator 15.0.2, SVG Export Plug-In . SVG Version: 6.00 Build 0)  -->
<!DOCTYPE svg PUBLIC "-//W3C//DTD SVG 1.1//EN" "http://www.w3.org/Graphics/SVG/1.1/DTD/svg11.dtd">
<svg version="1.1" id="Layer_1" xmlns="http://www.w3.org/2000/svg" xmlns:xlink="http://www.w3.org/1999/xlink" x="0px" y="0px"
	 width="46px" height="46px" viewBox="0 0 46 46" enable-background="new 0 0 46 46" xml:space="preserve">
<g>
	<g>
		<g enable-background="new    ">
			<g enable-background="new    ">
				<defs>
					<path id="SVGID_1_" enable-background="new    " d="M23.06,23.003c-0.055,0-0.081,0.02-0.088,0.026
						c0.004-0.005,0.024-0.03,0.027-0.079c0,1.243,0,2.517,0,3.813c-2.11-0.019-3.742-1.65-3.76-3.76
						c0.018-2.116,1.66-3.753,3.76-3.77c2.106,0.015,3.753,1.662,3.768,3.77c-0.016,2.101-1.652,3.742-3.768,3.76
						c0-1.296,0-2.569,0-3.813c0.002,0.015,0.007,0.048,0.028,0.071c0,0-0.02-0.017-0.058-0.019
						c0.016-0.008,0.035-0.008,0.049-0.021c-0.004,0.005-0.018,0.023-0.02,0.058c0-0.038-0.013-0.059-0.018-0.065
						C22.989,22.982,23.015,23.001,23.06,23.003z"/>
				</defs>
				<clipPath id="SVGID_2_">
					<use xlink:href="#SVGID_1_"  overflow="visible"/>
				</clipPath>
				<g clip-path="url(#SVGID_2_)" enable-background="new    ">
					<path fill="#758B96" d="M23.06,23.003c-0.024,0.002-0.056,0.01-0.078,0.019c0.003-0.012,0.009-0.028,0.013-0.04
						c0.004,1.212,0.004,2.485,0.004,3.781c-2.11-0.019-3.742-1.65-3.76-3.76c0.018-2.116,1.66-3.753,3.76-3.77
						c2.106,0.015,3.753,1.662,3.768,3.77c-0.016,2.101-1.652,3.742-3.768,3.76c0-1.296,0-2.569,0-3.813
						c0.003,0.014,0.018,0.031,0.011,0.043c-0.006,0.011-0.028,0.007-0.041,0.01c0.011-0.004,0.025-0.008,0.036-0.012
						c-0.002,0.013-0.004,0.029-0.006,0.042c-0.003-0.013-0.006-0.028-0.009-0.041C23.011,22.996,23.039,23,23.06,23.003"/>
					<path fill="#758B96" d="M22.999,22.95c0.005,0.025,0.012,0.05,0.028,0.071l0-0.001h-0.001l-0.004-0.003
						c-0.015-0.006-0.036-0.013-0.052-0.015l0.001-0.001h0.002L22.981,23c0.011-0.005,0.027-0.011,0.037-0.018l-0.001,0.001
						l-0.001,0.002l-0.003,0.004c-0.006,0.015-0.012,0.035-0.014,0.051v-0.012c-0.003-0.019-0.005-0.038-0.018-0.054l0.003,0.003
						c0.03,0.017,0.039,0.022,0.077,0.025h-0.015c-0.018,0.003-0.041,0.009-0.057,0.016C22.992,22.998,22.996,22.971,22.999,22.95
						c0,1.157,0,2.34,0,3.543c-0.088,0.003-0.205,0.007-0.292,0.01c-2.798-0.033-4.15-3.527-2.578-5.133
						c0.335-0.342,0.778-0.199,0.782-0.196c0.192,0.109,0.419,0.373,0.641,0.364c0.013,0,0.025-0.017,0.036-0.024
						c0.279-0.188,0.745-0.395,1.38-0.31c0.333,0.045,0.821,0.202,1.259,0.693c0.71,0.798,0.731,1.959,0.049,2.701
						c-0.017,0.019-0.052,0.035-0.056,0.06c-0.067,0.381,0.498,0.634,0.217,1.057c-0.226,0.339-0.439,0.66-1.437,0.778
						C22.999,25.29,22.999,24.107,22.999,22.95"/>
					<path fill="#728792" d="M22.999,22.95c0.007,0.038,0.011,0.048,0.028,0.071l0-0.001h-0.001l-0.004-0.003
						c-0.016-0.008-0.034-0.013-0.052-0.015l0.001-0.001h0.002L22.981,23c0.013-0.005,0.026-0.009,0.037-0.018l-0.001,0.001
						l-0.001,0.002l-0.003,0.004c-0.007,0.017-0.013,0.033-0.014,0.051v-0.012c-0.003-0.019-0.006-0.037-0.018-0.054l0.003,0.003
						c0.024,0.016,0.036,0.021,0.077,0.025h-0.015c-0.022,0.003-0.043,0.009-0.063,0.019C22.989,22.999,22.998,22.976,22.999,22.95
						c0,0.151,0,0.302,0,0.453c-0.032,0.313-0.074,0.73-0.105,1.044c-0.026,0.132,0.018,0.356-0.088,0.439
						c-0.004,0.003-0.677,0.072-1.284-0.555c-0.279-0.289-0.469-0.817-0.443-1.23c0.098-1.52,1.832-2.092,2.854-0.941
						c0.194,0.219,0.623,0.812,0.404,1.597c-0.265,0.951-1.142,1.085-1.149,1.08c-0.36-0.242-0.162-1.001-0.189-1.435
						C22.999,23.252,22.999,23.102,22.999,22.95"/>
					<path fill="#708590" d="M22.999,22.95c0.007,0.038,0.011,0.048,0.028,0.071l0-0.001h-0.001l-0.004-0.003
						c-0.016-0.009-0.033-0.014-0.052-0.015l0.001-0.001h0.002L22.981,23c0.013-0.005,0.026-0.01,0.037-0.018l-0.001,0.001
						l-0.001,0.002l-0.003,0.004c-0.008,0.017-0.013,0.033-0.014,0.051v-0.012c-0.003-0.019-0.006-0.037-0.018-0.054l0.003,0.003
						c0.024,0.016,0.036,0.021,0.077,0.025h-0.015c-0.033,0.004-0.047,0.009-0.07,0.023C22.991,22.997,22.995,22.987,22.999,22.95
						c0,0.117,0,0.234,0,0.352c-0.003,0.02-0.006,0.047-0.009,0.067c-0.042,0.354,0.127,0.955-0.15,1.182
						c-0.156,0.127-1.537-0.303-1.424-1.466c0.12-1.238,1.482-1.598,2.276-0.603c0.201,0.251,0.45,0.649,0.301,1.208
						c-0.184,0.688-0.833,0.81-0.839,0.806c-0.474-0.313-0.098-0.797-0.155-1.194C22.999,23.185,22.999,23.067,22.999,22.95"/>
					<path fill="#6F838E" d="M22.999,22.95c0.004,0.024,0.009,0.048,0.028,0.071l0-0.001h-0.001l-0.004-0.003
						c-0.016-0.009-0.033-0.014-0.052-0.015l0.001-0.001h0.002L22.981,23c0.013-0.005,0.026-0.01,0.037-0.018l-0.001,0.001
						l-0.001,0.002l-0.003,0.004c-0.008,0.017-0.013,0.033-0.014,0.051v-0.012c-0.002-0.019-0.006-0.037-0.018-0.054l0.003,0.003
						c0.018,0.012,0.039,0.023,0.077,0.025h-0.015c-0.033,0.004-0.047,0.009-0.07,0.023C22.989,23.001,22.997,22.983,22.999,22.95
						c0,0.094,0,0.188,0,0.282c-0.005,0.04-0.013,0.095-0.018,0.136c-0.032,0.254,0.082,0.675-0.108,0.848
						c-0.059,0.054-1.165-0.061-1.124-1.125c0.027-0.716,0.887-1.185,1.455-0.594c0.512,0.532,0.502,0.723,0.489,0.985
						c-0.025,0.5-0.568,0.677-0.573,0.674c-0.237-0.148-0.081-0.647-0.121-0.924C22.999,23.138,22.999,23.044,22.999,22.95"/>
					<path fill="#6D818B" d="M22.999,22.95c0.004,0.024,0.009,0.048,0.028,0.071l0-0.001h-0.001l-0.004-0.003
						c-0.016-0.009-0.033-0.014-0.052-0.015l0.001-0.001h0.002L22.981,23c0.013-0.004,0.026-0.009,0.037-0.018l-0.001,0.001
						l-0.001,0.002l-0.003,0.004c-0.008,0.017-0.013,0.033-0.014,0.051v-0.012c-0.002-0.019-0.006-0.037-0.018-0.054l0.003,0.003
						c0.018,0.012,0.039,0.023,0.077,0.025h-0.015c-0.018,0.002-0.042,0.005-0.07,0.023C22.991,22.994,22.997,22.982,22.999,22.95
						c0,0.071,0,0.142,0,0.213c-0.008,0.062-0.019,0.143-0.027,0.204c-0.02,0.154,0.046,0.406-0.065,0.515
						c-0.042,0.041-0.843,0.017-0.83-0.734c0-0.005,0.025-0.468,0.405-0.593c0.05-0.016,0.168-0.028,0.285,0.008
						c0.021,0.006,0.326,0.128,0.328,0.128c0.021,0.011,0.065,0.036,0.113,0.086c0.078,0.083,0.106,0.16,0.13,0.237
						c0.014,0.044,0,0.089,0.007,0.134c0.016,0.091,0.072,0.173,0.061,0.271c-0.037,0.313-0.318,0.399-0.32,0.398
						c-0.173-0.097-0.059-0.459-0.087-0.654C22.999,23.092,22.999,23.021,22.999,22.95"/>
					<path fill="#6B7F89" d="M22.999,22.95c0.003,0.023,0.009,0.048,0.028,0.071l0-0.001h-0.001l-0.004-0.003
						c-0.016-0.009-0.033-0.014-0.052-0.015l0.001-0.001h0.002L22.981,23c0.013-0.004,0.026-0.009,0.037-0.018l-0.001,0.001
						l-0.001,0.002l-0.003,0.004c-0.009,0.016-0.013,0.033-0.014,0.051v-0.012c-0.002-0.019-0.006-0.037-0.018-0.054l0.003,0.003
						c0.018,0.012,0.039,0.023,0.077,0.025h-0.015c-0.016,0.002-0.048,0.005-0.074,0.026C22.983,23.016,22.997,22.99,22.999,22.95
						c0,0.048,0,0.096,0,0.144c-0.01,0.076-0.022,0.178-0.032,0.254c-0.013,0.06,0.014,0.156-0.027,0.202
						c-0.023,0.024-0.521,0.083-0.536-0.389c-0.003-0.086,0.012-0.126,0.012-0.127c0.108-0.194,0.168-0.222,0.188-0.231
						c0.021-0.01,0.185-0.063,0.186-0.063c0.03-0.008,0.06-0.009,0.091-0.007c0.035,0.001,0.143,0.006,0.236,0.094
						c0.153,0.143,0.138,0.292,0.133,0.349c-0.006,0.061-0.032,0.101-0.042,0.115c-0.005,0.009-0.015,0.02-0.021,0.027
						c-0.004,0.004-0.009,0.009-0.013,0.013c-0.007,0.009-0.008,0.023-0.012,0.033c0,0.002-0.02,0.053-0.109,0.116
						c-0.017-0.129-0.045-0.256-0.053-0.386C22.999,23.046,22.999,22.998,22.999,22.95"/>
					<path fill="#697D87" d="M22.999,22.95c0.002,0.015,0.007,0.048,0.028,0.071l0-0.001h-0.001l-0.004-0.003
						c-0.016-0.009-0.033-0.014-0.052-0.015l0.001-0.001h0.002L22.981,23c0.013-0.004,0.026-0.009,0.037-0.018l-0.001,0.001
						l-0.001,0.002l-0.003,0.004c-0.009,0.016-0.013,0.033-0.014,0.051v-0.012c-0.002-0.019-0.006-0.037-0.018-0.054l0.003,0.003
						c0.02,0.016,0.046,0.023,0.077,0.025h-0.015c-0.017,0.002-0.045,0.005-0.072,0.024C22.984,23.01,22.997,22.99,22.999,22.95
						c0,0.025,0,0.05,0,0.074c-0.007,0.072-0.018,0.168-0.025,0.239c-0.003,0.016,0.001,0.042-0.011,0.053
						c0,0.001-0.135,0.024-0.23-0.072c-0.061-0.062-0.067-0.19-0.061-0.223c0.051-0.264,0.297-0.236,0.392-0.111
						c0.078,0.103,0.106,0.142,0.1,0.229c-0.009,0.122-0.128,0.154-0.129,0.154c-0.071-0.04-0.031-0.188-0.035-0.27
						C22.999,23,22.999,22.976,22.999,22.95"/>
					<g>
						<path fill="#677B85" d="M23.01,22.994c-0.007,0.015-0.011,0.03-0.012,0.046v-0.012c-0.002-0.019-0.006-0.037-0.018-0.054
							l0.003,0.003c0.02,0.016,0.046,0.023,0.077,0.025h-0.015c-0.034,0.004-0.058,0.013-0.074,0.026
							c0.004-0.005,0.024-0.03,0.027-0.079c0,0.002,0,0.004,0,0.005c-0.005,0.063-0.012,0.145-0.017,0.206
							c-0.002,0.014,0.002,0.035-0.008,0.045c-0.002,0.002-0.202,0.046-0.193-0.164c0.004-0.101,0.114-0.208,0.21-0.095
							C22.993,22.95,23.017,22.979,23.01,22.994L23.01,22.994"/>
						<path fill="#677B85" d="M22.999,22.95c0.002,0.015,0.007,0.048,0.028,0.071l0-0.001h-0.001l-0.004-0.003
							c-0.016-0.009-0.033-0.014-0.052-0.015l0.001-0.001h0.002L22.981,23c0.007-0.002,0.015-0.005,0.021-0.008h0
							c0.016-0.003,0.122,0.07,0.071,0.151c-0.012,0.02-0.032,0.03-0.051,0.041c-0.009-0.068-0.022-0.16-0.024-0.229
							C22.999,22.954,22.999,22.952,22.999,22.95"/>
					</g>
					<g>
						<path fill="#657882" d="M22.986,22.979c0.022,0.015,0.044,0.022,0.074,0.023h-0.015c-0.034,0.004-0.058,0.013-0.074,0.026
							c0.003-0.003,0.024-0.028,0.027-0.075l-0.014,0.142c-0.137,0.045-0.091-0.084-0.091-0.085s0.037-0.079,0.087-0.036
							l0.003,0.003L22.986,22.979"/>
						<path fill="#657882" d="M23,22.961c0.004,0.021,0.011,0.039,0.023,0.057l0.005,0.007c0.011,0.024-0.007,0.042-0.017,0.051
							c-0.003-0.037-0.009-0.086-0.012-0.123l0,0.006L23,22.961"/>
					</g>
					<g>
						<path fill="#637680" d="M22.991,22.992c0.003-0.01,0.005-0.021,0.007-0.032l-0.002,0.026c-0.003,0.005-0.006,0.01-0.008,0.015
							C22.989,22.999,22.99,22.995,22.991,22.992"/>
						<path fill="#637680" d="M23.041,23.001c0.006,0.001,0.013,0.002,0.019,0.002h-0.015c-0.019,0.002-0.038,0.007-0.056,0.015
							l0.001-0.001c0.013-0.007,0.022-0.021,0.04-0.018C23.034,23,23.038,23.001,23.041,23.001"/>
						<polyline fill="#637680" points="23,22.961 23,22.967 23,22.956 23,22.961 						"/>
					</g>
					<path fill="#8495A0" d="M24.768,21.96c-0.167-0.254-0.356-0.461-0.593-0.649c0.307,0.154,0.319,0.16,0.431,0.292
						c0.084,0.1,0.151,0.178,0.249,0.509C24.828,22.065,24.796,22.003,24.768,21.96"/>
				</g>
			</g>
			<g enable-background="new    ">
				<defs>
					<path id="SVGID_3_" enable-background="new    " d="M44.238,23.003c0,11.727-9.513,21.23-21.24,21.23
						C34.726,44.233,44.238,34.729,44.238,23.003z"/>
				</defs>
				<clipPath id="SVGID_4_">
					<use xlink:href="#SVGID_3_"  overflow="visible"/>
				</clipPath>
				<g clip-path="url(#SVGID_4_)" enable-background="new    ">
					<path fill="#4B5B63" d="M44.238,23.003c0,0.95-0.063,1.886-0.184,2.803C44.176,24.889,44.238,23.953,44.238,23.003"/>
					<path fill="#495960" d="M44.055,25.806c-0.146,1.107-0.378,2.188-0.688,3.235C43.677,27.994,43.908,26.913,44.055,25.806"/>
					<path fill="#47565E" d="M43.367,29.041c-0.368,1.24-0.846,2.433-1.422,3.566C42.521,31.474,42.999,30.281,43.367,29.041"/>
					<path fill="#44545B" d="M41.945,32.607c-3.508,6.899-10.677,11.626-18.947,11.626C31.269,44.233,38.438,39.507,41.945,32.607"
						/>
				</g>
			</g>
			<g enable-background="new    ">
				<defs>
					<path id="SVGID_5_" enable-background="new    " d="M23.06,23.003c-0.055,0-0.081,0.02-0.088,0.026
						c0.004-0.005,0.024-0.03,0.027-0.079c0-11.999,0-21.188,0-21.188c11.727,0,21.24,9.513,21.24,21.24
						c0,11.727-9.513,21.23-21.24,21.23S1.767,34.729,1.767,23.003c0-11.727,9.504-21.24,21.231-21.24c0,0,0,9.188,0,21.188
						c0.002,0.015,0.007,0.048,0.028,0.071c0,0-0.02-0.017-0.058-0.019c0.016-0.008,0.035-0.008,0.049-0.021
						c-0.004,0.005-0.018,0.023-0.02,0.058c0-0.038-0.013-0.059-0.018-0.065C22.987,22.98,23.013,23.001,23.06,23.003z"/>
				</defs>
				<clipPath id="SVGID_6_">
					<use xlink:href="#SVGID_5_"  overflow="visible"/>
				</clipPath>
				<g clip-path="url(#SVGID_6_)" enable-background="new    ">
					<path fill="#9CA8B1" d="M23.06,23.003c-0.062-12.052-0.062-21.24-0.062-21.24c11.727,0,21.24,9.513,21.24,21.24
						c0,11.727-9.513,21.23-21.24,21.23S1.767,34.729,1.767,23.003c0-11.727,9.504-21.24,21.231-21.24c0,0,0,9.188,0,21.188
						C23.015,22.969,23.042,22.987,23.06,23.003"/>
					<path fill="#9CA8B1" d="M22.999,5.641c-0.355,1.628-0.355,1.628,0,2.871c0,3.74,0,8.777,0,14.438c0,0.002,0,0.004,0,0.005
						l0.027,0.066l0-0.001h-0.001l-0.004-0.003l-0.048-0.016L22.981,23l0.037-0.018l-0.001,0.001l-0.001,0.002l-0.003,0.004
						l-0.032-0.015l0.003,0.003c0.015-5.689,0.015-10.726,0.015-14.466l0.172,0.573c5.113,13.806,17.139,20.186,19.097,14.406
						C45.766,13.169,31.302,0.406,24.118,4.439C23.688,4.68,23.104,5.159,22.999,5.641c0-2.456,0-3.878,0-3.878
						c11.727,0,21.24,9.513,21.24,21.24c0,11.727-9.513,21.23-21.24,21.23S1.767,34.729,1.767,23.003
						c0-11.727,9.504-21.24,21.231-21.24C22.999,1.763,22.999,3.185,22.999,5.641"/>
					<path fill="#99A6AF" d="M22.999,4.662c-1.402,3.225-1.402,3.225,0,6.537c0,3.33,0,7.352,0,11.752c0,0.002,0,0.004,0,0.005
						l0.027,0.066l0-0.001h-0.001l-0.004-0.003l-0.048-0.016L22.981,23l0.037-0.018l-0.001,0.001l-0.001,0.002l-0.003,0.004
						l-0.032-0.015l0.003,0.003c0.015-4.427,0.015-8.45,0.015-11.779l0.129,0.287c3.863,8.366,3.863,8.366,11.062,13.186
						c4.34,2.904,6.745,2.786,8.043-0.396C46.728,13.252,31.057-0.214,23.309,4.408C23.206,4.47,23.046,4.552,22.999,4.662
						c0-1.851,0-2.899,0-2.899c11.727,0,21.24,9.513,21.24,21.24c0,11.727-9.513,21.23-21.24,21.23S1.767,34.729,1.767,23.003
						c0-11.727,9.504-21.24,21.231-21.24C22.999,1.763,22.999,2.811,22.999,4.662"/>
					<path fill="#96A3AD" d="M22.999,4.177c-0.619,0.994-1.96,1.502-1.96,2.913c0,1.952,0.776,3.867,1.96,6.564
						c0,2.784,0,5.93,0,9.297c0,0.002,0,0.004,0,0.005l0.027,0.066l0-0.001h-0.001l-0.004-0.003l-0.048-0.016L22.981,23l0.037-0.018
						l-0.001,0.001l-0.001,0.002l-0.003,0.004l-0.032-0.015l0.003,0.003c0.015-3.395,0.015-6.541,0.015-9.324l0.237,0.493
						c3.59,7.396,3.59,7.396,10.942,11.639c2.416,1.394,6.067,3.5,7.987-0.718c1.697-3.73,0.791-10.742-3.635-15.566
						C31.049,1.347,23.229,3.806,22.999,4.177c0-1.548,0-2.414,0-2.414c11.727,0,21.24,9.513,21.24,21.24
						c0,11.727-9.513,21.23-21.24,21.23S1.767,34.729,1.767,23.003c0-11.727,9.504-21.24,21.231-21.24
						C22.999,1.763,22.999,2.629,22.999,4.177"/>
					<path fill="#92A0AA" d="M22.999,3.827c-0.205,0.33-0.812,0.4-1.16,0.571c-0.4,0.197-1.66,1.42-1.66,2.82
						c0,2.146,0,2.146,2.82,8.902c0,2.129,0,4.423,0,6.83c0,0.002,0,0.004,0,0.005l0.027,0.066l0-0.001h-0.001l-0.004-0.003
						l-0.048-0.016L22.981,23l0.037-0.018l-0.001,0.001l-0.001,0.002l-0.003,0.004l-0.032-0.015l0.003,0.003
						c0.015-2.434,0.015-4.728,0.015-6.857l0,0c0.844,1.788,0.861,3.954,2.466,5.394c0.038,0.034,8.053,5.231,10.589,6.319
						c4.734,2.03,6.068-2,6.507-3.324c1.64-4.954-0.794-11.667-3.988-15.045C30.644,1.082,23.039,3.762,22.999,3.827
						c0-1.328,0-2.064,0-2.064c11.727,0,21.24,9.513,21.24,21.24c0,11.727-9.513,21.23-21.24,21.23S1.767,34.729,1.767,23.003
						c0-11.727,9.504-21.24,21.231-21.24C22.999,1.763,22.999,2.499,22.999,3.827"/>
					<path fill="#8E9DA7" d="M22.999,3.572c-0.108,0.143-0.403,0.114-0.575,0.163c-1.173,0.333-3.14,1.388-3.14,4.718
						c0,3.859,2.479,6.818,3.715,10.228c0,1.374,0,2.8,0,4.269c0,0.002,0,0.004,0,0.005l0.027,0.066l0-0.001h-0.001l-0.004-0.003
						l-0.048-0.016L22.981,23l0.037-0.018l-0.001,0.001l-0.001,0.002l-0.003,0.004l-0.032-0.015l0.003,0.003
						c0.015-1.496,0.015-2.923,0.015-4.296l0.276,0.681c0.703,2.381,14.373,14.734,18.648,7.321
						c1.16-2.013,3.084-9.455-3.092-16.997C32.576,2.047,23.421,3.013,22.999,3.572c0-1.167,0-1.81,0-1.81
						c11.727,0,21.24,9.513,21.24,21.24c0,11.727-9.513,21.23-21.24,21.23S1.767,34.729,1.767,23.003
						c0-11.727,9.504-21.24,21.231-21.24C22.999,1.763,22.999,2.405,22.999,3.572"/>
					<path fill="#8A9AA4" d="M22.999,3.361c-0.257,0.344-0.96,0.286-1.372,0.409c-0.765,0.228-3.262,1.259-3.262,4.95
						c0,4.825,4.022,8.194,4.634,12.798c0,0.473,0,0.95,0,1.432c0,0.002,0,0.004,0,0.005l0.027,0.066l0-0.001h-0.001l-0.004-0.003
						l-0.048-0.016L22.981,23l0.037-0.018l-0.001,0.001l-0.001,0.002l-0.003,0.004l-0.032-0.015l0.003,0.003
						c0.015-0.509,0.015-0.987,0.015-1.459l0.17-0.871c0.027-0.092,0.004-0.266,0.091-0.306c0.079-0.036,2.093,0.988,2.441,3.011
						c0.188,1.095,8.424,6.195,10.618,6.576c3.927,0.681,5.249-2.055,6.038-3.688c2.529-5.232,0.177-17.607-11.255-22.125
						C27.165,2.56,23.113,3.208,22.999,3.361c0-1.033,0-1.599,0-1.599c11.727,0,21.24,9.513,21.24,21.24
						c0,11.727-9.513,21.23-21.24,21.23S1.767,34.729,1.767,23.003c0-11.727,9.504-21.24,21.231-21.24
						C22.999,1.763,22.999,2.328,22.999,3.361"/>
					<path fill="#8495A0" d="M22.999,3.163c-0.263,0.345-0.977,0.269-1.395,0.384c-2.667,0.733-4.037,3.06-4.122,4.4
						c-0.342,5.349,4.37,12.355,4.42,12.387c0.251,0.157,0.563-0.127,0.803,0.112c0.291,0.29,0.226,0.93,0.294,1.334
						c0,0.387,0,0.778,0,1.17c0,0.002,0,0.004,0,0.005l0.027,0.066l0-0.001h-0.001l-0.004-0.003l-0.048-0.016L22.981,23l0.037-0.018
						l-0.001,0.001l-0.001,0.002l-0.003,0.004l-0.032-0.015l0.003,0.003c0.015-0.42,0.015-0.811,0.015-1.198l0.024-0.056
						c0.053-0.292-0.032-0.761,0.175-0.974c0.413-0.423,2.36,1.418,2.293,3.348c-0.003,0.084-0.054,0.202-0.023,0.28
						c0.085,0.217,12.232,13.08,17.025,2.064c1-2.299,2.308-9.803-3.576-16.828C32.294,1.704,23.229,2.86,22.999,3.163
						c0-0.907,0-1.4,0-1.4c11.727,0,21.24,9.513,21.24,21.24c0,11.727-9.513,21.23-21.24,21.23S1.767,34.729,1.767,23.003
						c0-11.727,9.504-21.24,21.231-21.24C22.999,1.763,22.999,2.256,22.999,3.163"/>
					<path fill="#758B96" d="M22.999,3.001c-0.172,0.206-0.617,0.112-0.881,0.161c-2.562,0.467-5.3,2.391-5.576,5.165
						c-0.57,5.731,4.637,12.377,4.694,12.399c0.5,0.194,1.011-0.494,1.504,0.016c0.235,0.244,0.136,0.783,0.259,1.098
						c0,0.367,0,0.737,0,1.11c0,0.002,0,0.004,0,0.005l0.027,0.066l0-0.001h-0.001l-0.004-0.003l-0.048-0.016L22.981,23l0.037-0.018
						l-0.001,0.001l-0.001,0.002l-0.003,0.004l-0.032-0.015l0.003,0.003c0.015-0.4,0.015-0.77,0.015-1.137l0.049-0.117
						c0.047-0.245-0.07-0.71,0.155-0.817c0.2-0.094,2.588,1.556,1.883,3.841c-0.025,0.081-0.113,0.182-0.097,0.266
						c0.041,0.209,10.726,11.777,16.253,4.224c2.928-4,3.422-11.603-1.3-18.391C33.815,2.034,23.491,2.411,22.999,3.001
						c0-0.804,0-1.238,0-1.238c11.727,0,21.24,9.513,21.24,21.24c0,11.727-9.513,21.23-21.24,21.23S1.767,34.729,1.767,23.003
						c0-11.727,9.504-21.24,21.231-21.24C22.999,1.763,22.999,2.197,22.999,3.001"/>
					<path fill="#728792" d="M22.999,2.851c-0.293,0.355-1.055,0.202-1.507,0.289c-2.13,0.408-5.458,2.237-5.899,5.603
						c-0.821,6.275,4.931,12.508,4.995,12.528c0.762,0.235,1.475-0.983,2.188-0.23c0.184,0.194,0.127,0.612,0.224,0.861
						c0,0.348,0,0.697,0,1.049c0,0.002,0,0.004,0,0.005l0.027,0.066l0-0.001h-0.001l-0.004-0.003l-0.048-0.016L22.981,23
						l0.037-0.018l-0.001,0.001l-0.001,0.002l-0.003,0.004l-0.032-0.015l0.003,0.003c0.015-0.379,0.015-0.729,0.015-1.077
						l0.075-0.176c0.031-0.16-0.047-0.466,0.102-0.534c0.221-0.102,2.391,1.512,1.576,3.58c-0.101,0.256-0.375,0.412-0.406,0.708
						c-0.114,1.077,8.977,10.419,15.191,5.972c7.583-5.428,5.08-25.604-12.138-28.546C25.553,2.588,23.082,2.75,22.999,2.851
						c0-0.708,0-1.088,0-1.088c11.727,0,21.24,9.513,21.24,21.24c0,11.727-9.513,21.23-21.24,21.23S1.767,34.729,1.767,23.003
						c0-11.727,9.504-21.24,21.231-21.24C22.999,1.763,22.999,2.144,22.999,2.851"/>
					<path fill="#708590" d="M22.999,2.71c-0.302,0.357-1.077,0.183-1.538,0.261c-2.369,0.402-6.329,2.461-6.871,6.273
						c-1.029,7.245,5.562,12.977,5.638,12.97c0.938-0.083,1.765-1.845,2.611-0.863c0.124,0.144,0.091,0.434,0.16,0.61
						c0,0.327,0,0.657,0,0.988c0,0.002,0,0.004,0,0.005l0.027,0.066l0-0.001h-0.001l-0.004-0.003l-0.048-0.016L22.981,23
						l0.037-0.018l-0.001,0.001l-0.001,0.002l-0.003,0.004l-0.032-0.015l0.003,0.003c0.015-0.359,0.015-0.688,0.015-1.016
						l0.101-0.236c0.014-0.075,0.033-0.175,0.047-0.25c1.299,0.807,1.48,1.838,1.497,2.243c0.043,1.008-1.082,1.301-1.311,2.143
						c-0.05,0.184,7.509,11.179,15.46,6.637c7.764-4.435,6.957-24.425-9.45-29.264C26.466,2.387,23.064,2.632,22.999,2.71
						c0-0.617,0-0.948,0-0.948c11.727,0,21.24,9.513,21.24,21.24c0,11.727-9.513,21.23-21.24,21.23S1.767,34.729,1.767,23.003
						c0-11.727,9.504-21.24,21.231-21.24C22.999,1.763,22.999,2.093,22.999,2.71"/>
					<path fill="#6F838E" d="M22.999,2.574c-0.16,0.181-0.559,0.067-0.798,0.097c-3.88,0.47-8.104,3.149-8.67,7.359
						c-0.721,5.373,2.809,11.145,6.638,13.622c0.403-2.713,2.656-2.031,2.677-2.012c0.091,0.083,0.117,0.264,0.153,0.382
						c0,0.308,0,0.617,0,0.928c0,0.002,0,0.004,0,0.005l0.027,0.066l0-0.001h-0.001l-0.004-0.003l-0.048-0.016L22.981,23
						l0.037-0.018l-0.001,0.001l-0.001,0.002l-0.003,0.004l-0.032-0.015l0.003,0.003c0.015-0.338,0.015-0.647,0.015-0.955
						l0.095-0.233c1.173,0.102,1.776,2.31,0.597,3.389c-0.493,0.451-1.256-0.038-1.726,0.494c-0.105,0.12,5.212,9.844,13.407,8.739
						c9.896-1.333,11.973-19.339,0.642-27.872C29.341,1.515,23.029,2.539,22.999,2.574c0-0.53,0-0.812,0-0.812
						c11.727,0,21.24,9.513,21.24,21.24c0,11.727-9.513,21.23-21.24,21.23S1.767,34.729,1.767,23.003
						c0-11.727,9.504-21.24,21.231-21.24C22.999,1.763,22.999,2.044,22.999,2.574"/>
					<path fill="#6D818B" d="M22.999,2.445c-0.316,0.362-1.112,0.149-1.588,0.213c-1.459,0.197-5.136,1.068-7.765,4.907
						c-0.408,0.597-2.353,3.847-0.488,9.25c0.466,1.35,1.509,3.287,2.095,4.052c0.062,0.081,7.027,8.801,9.232,10.73
						c2.171,1.899,5.647,4.093,9.868,3.755c9.582-0.767,14.313-18.299,1.955-28.628C30.474,1.847,23.152,2.269,22.999,2.445
						c0-0.446,0-0.683,0-0.683c11.727,0,21.24,9.513,21.24,21.24c0,11.727-9.513,21.23-21.24,21.23S1.767,34.729,1.767,23.003
						c0-11.727,9.504-21.24,21.231-21.24C22.999,1.763,22.999,1.999,22.999,2.445"/>
					<path fill="#6B7F89" d="M22.999,2.327c-0.321,0.363-1.123,0.138-1.604,0.198c-0.848,0.104-5.223,0.814-8.103,4.567
						c-1.966,2.562-2.539,6.327-1.493,9.826c0.891,2.983,10.235,19.904,21.346,19.376c10.712-0.508,15.285-18.505,4.399-28.53
						C30.532,1.307,23.037,2.283,22.999,2.327c0-0.37,0-0.564,0-0.564c11.727,0,21.24,9.513,21.24,21.24
						c0,11.727-9.513,21.23-21.24,21.23S1.767,34.729,1.767,23.003c0-11.727,9.504-21.24,21.231-21.24
						C22.999,1.763,22.999,1.957,22.999,2.327"/>
					<path fill="#697D87" d="M22.999,2.225c-0.153,0.166-0.524,0.041-0.749,0.059c-3.757,0.294-7.599,2.234-9.561,4.828
						c-1.535,2.03-3.399,5.401-1.867,11.213c1.321,5.012,11.013,19.689,21.395,18.876c12.136-0.949,16.74-19.967,4.13-30.526
						C30.188,1.518,23.034,2.188,22.999,2.225c0-0.303,0-0.462,0-0.462c11.727,0,21.24,9.513,21.24,21.24
						c0,11.727-9.513,21.23-21.24,21.23S1.767,34.729,1.767,23.003c0-11.727,9.504-21.24,21.231-21.24
						C22.999,1.763,22.999,1.922,22.999,2.225"/>
					<path fill="#677B85" d="M22.999,2.139c-0.333,0.367-1.152,0.111-1.646,0.158c-2.86,0.275-7.069,2.05-9.236,4.797
						c-2.771,3.513-3.506,7.089-2.46,11.959c1.44,6.705,11.329,19.361,21.07,19.053c13.668-0.432,18.089-20.024,6.855-30.383
						C30.551,1.24,23.038,2.096,22.999,2.139c0-0.248,0-0.376,0-0.376c11.727,0,21.24,9.513,21.24,21.24
						c0,11.727-9.513,21.23-21.24,21.23S1.767,34.729,1.767,23.003c0-11.727,9.504-21.24,21.231-21.24
						C22.999,1.763,22.999,1.892,22.999,2.139"/>
					<path fill="#657882" d="M22.999,2.062c-0.334,0.367-1.152,0.108-1.646,0.154c-1.02,0.096-6.3,0.797-10.054,5.246
						c-3.97,4.707-3.182,10.253-2.846,11.84c1.828,8.634,11.214,20.268,22.347,19.603c12.47-0.745,18.78-20.142,6.799-31.198
						C30.548,1.201,23.037,2.019,22.999,2.062c0-0.197,0-0.299,0-0.299c11.727,0,21.24,9.513,21.24,21.24
						c0,11.727-9.513,21.23-21.24,21.23S1.767,34.729,1.767,23.003c0-11.727,9.504-21.24,21.231-21.24
						C22.999,1.763,22.999,1.865,22.999,2.062"/>
					<path fill="#637680" d="M22.999,1.993c-0.334,0.366-1.151,0.104-1.644,0.148c-3.71,0.334-7.886,2.345-10.154,4.888
						c-4.487,5.033-4.188,10.429-3.852,12.515C9.124,30.54,19.285,39.982,29.094,39.752c14.977-0.354,20.471-21.027,8.52-32.061
						C30.715,1.323,23.037,1.95,22.999,1.993c0-0.152,0-0.23,0-0.23c11.727,0,21.24,9.513,21.24,21.24
						c0,11.727-9.513,21.23-21.24,21.23S1.767,34.729,1.767,23.003c0-11.727,9.504-21.24,21.231-21.24
						C22.999,1.763,22.999,1.841,22.999,1.993"/>
					<path fill="#61747E" d="M22.999,1.956c-0.25,0.265-0.848,0.048-1.211,0.069c-3.14,0.18-7.778,1.399-12.042,6.192
						c-0.436,0.49-4.23,4.996-3.275,12.316c1.257,9.642,10.216,19.955,21.55,19.94c14.419-0.02,22.731-19.483,9.854-32.556
						C31.486,1.436,23.042,1.909,22.999,1.956c11.727-0.193,21.24,9.32,21.24,21.047c0,11.727-9.513,21.23-21.24,21.23
						S1.767,34.729,1.767,23.003c0-11.727,9.504-21.24,21.231-21.24C22.999,1.763,22.999,1.829,22.999,1.956"/>
					<path fill="#5F727B" d="M22.999,1.923c-0.348,0.372-1.187,0.079-1.695,0.112C13.017,2.585,4.518,10.262,5.57,20.399
						c1.308,12.586,12.173,20.887,21.502,20.743c16.436-0.252,23.103-20.75,10.81-33.232C31.473,1.404,23.042,1.876,22.999,1.923
						c11.727-0.16,21.24,9.353,21.24,21.08c0,11.727-9.513,21.23-21.24,21.23S1.767,34.729,1.767,23.003
						c0-11.727,9.504-21.24,21.231-21.24C22.999,1.763,22.999,1.817,22.999,1.923"/>
					<path fill="#5D7079" d="M22.999,1.893c-0.35,0.373-1.19,0.075-1.7,0.107c-0.714,0.045-7.117,0.594-12.05,6.011
						C7.72,9.689,4.24,14.385,4.928,21.734c1.03,10.996,11.215,20.319,21.796,19.952c16.758-0.58,23.695-22.203,10.916-34.023
						C30.584,1.135,23.038,1.852,22.999,1.893c11.727-0.13,21.24,9.383,21.24,21.11c0,11.727-9.513,21.23-21.24,21.23
						S1.767,34.729,1.767,23.003c0-11.727,9.504-21.24,21.231-21.24C22.999,1.763,22.999,1.807,22.999,1.893"/>
					<path fill="#5B6E77" d="M22.999,1.866c-0.352,0.373-1.194,0.071-1.706,0.102c-0.723,0.043-7.208,0.575-12.167,5.94
						C4.147,13.293,4.108,19.606,4.323,22.07c1.002,11.518,10.952,20.523,22.18,20.074c16.914-0.679,23.996-22.596,11.145-34.487
						C30.587,1.124,23.038,1.825,22.999,1.866c11.727-0.104,21.24,9.41,21.24,21.137c0,11.727-9.513,21.23-21.24,21.23
						S1.767,34.729,1.767,23.003c0-11.727,9.504-21.24,21.231-21.24C22.999,1.763,22.999,1.798,22.999,1.866"/>
					<path fill="#596B74" d="M22.999,1.842c-0.353,0.374-1.197,0.067-1.71,0.097C11.287,2.503,2.958,12.086,3.813,22.044
						c1.052,12.252,10.802,21.05,22.679,20.466c16.899-0.831,23.992-22.985,11.161-34.859C30.589,1.114,23.038,1.801,22.999,1.842
						c11.727-0.08,21.24,9.434,21.24,21.161c0,11.727-9.513,21.23-21.24,21.23S1.767,34.729,1.767,23.003
						c0-11.727,9.504-21.24,21.231-21.24C22.999,1.763,22.999,1.79,22.999,1.842"/>
					<path fill="#6D818B" d="M22.999,22.95c0.003,0.038,0.021,0.062,0.028,0.071l0-0.001h-0.001l-0.004-0.003
						c-0.015-0.007-0.031-0.012-0.048-0.016L22.981,23c0.012-0.005,0.027-0.011,0.037-0.018l-0.001,0.001l-0.001,0.002l-0.003,0.004
						c-0.006,0.013-0.011,0.03-0.014,0.044c-0.003-0.021-0.007-0.041-0.019-0.059l0.003,0.003c0.023,0.015,0.036,0.021,0.077,0.025
						c-0.038,0.002-0.053,0.003-0.088,0.026C22.988,23.005,22.996,22.921,22.999,22.95c0-0.291,0-0.58,0-0.867l0.088-0.205
						c0.007-0.013,0.01-0.038,0.023-0.043c0.026-0.011,0.735,0.21,0.984,0.903c0.097,0.271,0.079,0.52,0.077,0.547l-0.205,0.937
						c-0.646,1.488-2.649,1.415-3.249-0.12c-0.004-0.01-0.37-0.978,0.376-1.77c0.141-0.15,0.393-0.354,0.789-0.471
						c0.152-0.045,0.273-0.053,0.325-0.056c0.037-0.002,0.677-0.006,0.677-0.005c0.074,0.054,0.087,0.195,0.115,0.283
						C22.999,22.371,22.999,22.66,22.999,22.95"/>
					<path fill="#576972" d="M22.999,1.821c-0.354,0.374-1.2,0.064-1.714,0.092C12.217,2.399,2.879,10.597,3.43,22.025
						c0.636,13.174,11.68,21.072,21.548,20.833c18.014-0.436,26.071-22.813,12.679-35.212C30.591,1.106,23.038,1.78,22.999,1.821
						c11.727-0.059,21.24,9.455,21.24,21.182c0,11.727-9.513,21.23-21.24,21.23S1.767,34.729,1.767,23.003
						c0-11.727,9.504-21.24,21.231-21.24C22.999,1.763,22.999,1.783,22.999,1.821"/>
					<path fill="#6B7F89" d="M22.999,22.95c0.003,0.038,0.021,0.062,0.028,0.071l0-0.001h-0.001l-0.004-0.003
						c-0.015-0.007-0.031-0.012-0.048-0.016L22.981,23c0.013-0.005,0.026-0.009,0.037-0.018l-0.001,0.001l-0.001,0.002l-0.003,0.004
						C23.008,23,23.002,23.015,23,23.025c-0.004-0.018-0.008-0.035-0.02-0.051l0.003,0.003c0.023,0.015,0.036,0.021,0.077,0.025
						c-0.036,0.002-0.052,0.003-0.086,0.024C22.988,23.004,22.996,22.922,22.999,22.95c0-0.27,0-0.539,0-0.806l0.081-0.177
						c0.006-0.011,0.009-0.032,0.021-0.037c0.1-0.04,1.363,0.61,0.875,1.736c-0.024,0.056-0.075,0.148-0.126,0.22l-0.517,0.674
						c-0.244,0.217-0.695,0.299-0.699,0.3c-1.04,0.087-1.422-0.707-1.515-0.953c-0.133-0.354-0.082-0.955,0.232-1.311
						c0.246-0.279,0.372-0.335,0.977-0.61c0.277-0.125,0.558-0.094,0.565-0.088c0.065,0.048,0.079,0.17,0.105,0.247
						C22.999,22.411,22.999,22.68,22.999,22.95"/>
					<path fill="#697D87" d="M22.999,22.95c0.003,0.038,0.021,0.062,0.028,0.071l0-0.001h-0.001l-0.004-0.003
						c-0.015-0.008-0.033-0.009-0.048-0.016L22.981,23c0.013-0.005,0.026-0.01,0.037-0.018l-0.001,0.001l-0.001,0.002l-0.003,0.004
						c-0.007,0.014-0.011,0.028-0.014,0.044c-0.002-0.021-0.007-0.041-0.019-0.059l0.003,0.003c0.023,0.015,0.036,0.021,0.077,0.025
						c-0.023,0-0.049,0.002-0.084,0.023C22.988,23.002,22.996,22.923,22.999,22.95c0-0.25,0-0.498,0-0.746l0.074-0.148
						c0.006-0.009,0.009-0.027,0.019-0.031c0.089-0.034,1.229,0.58,0.801,1.583c-0.301,0.706-1.289,0.843-1.298,0.844
						c-0.402,0.039-0.852-0.234-1.024-0.622c-0.248-0.556,0.071-1.006,0.085-1.024c0.385-0.531,0.411-0.547,0.553-0.64
						c0.361-0.235,0.692-0.173,0.694-0.171c0.056,0.041,0.072,0.146,0.095,0.21C22.999,22.452,22.999,22.701,22.999,22.95"/>
					<path fill="#677B85" d="M22.999,22.95c0.001,0.01,0.005,0.044,0.028,0.071l0-0.001h-0.001l-0.004-0.003
						c-0.015-0.008-0.033-0.009-0.048-0.016L22.981,23c0.013-0.005,0.026-0.01,0.037-0.018l-0.001,0.001l-0.001,0.002l-0.003,0.004
						c-0.007,0.014-0.011,0.028-0.014,0.044c-0.001-0.015-0.004-0.04-0.019-0.059l0.003,0.003c0.031,0.021,0.052,0.023,0.077,0.025
						c-0.03,0-0.053,0.004-0.084,0.023C22.988,23.002,22.996,22.923,22.999,22.95c0-0.229,0-0.458,0-0.685l0.066-0.12
						c0.005-0.007,0.008-0.022,0.017-0.025c0.093-0.033,1.132,0.575,0.72,1.445c-0.42,0.89-1.654,0.805-1.97-0.136
						c-0.333-0.989,0.886-1.478,1.081-1.338c0.047,0.034,0.064,0.12,0.085,0.174C22.999,22.493,22.999,22.721,22.999,22.95"/>
					<path fill="#657882" d="M22.999,22.95c0,0.008,0.004,0.043,0.028,0.071l0-0.001h-0.001l-0.004-0.003
						c-0.015-0.008-0.033-0.009-0.048-0.016L22.981,23c0.013-0.005,0.026-0.01,0.037-0.018l-0.001,0.001l-0.001,0.002l-0.003,0.004
						c-0.007,0.014-0.011,0.028-0.014,0.044c-0.002-0.017-0.004-0.039-0.019-0.059l0.003,0.003c0.018,0.013,0.036,0.021,0.067,0.025
						c-0.03,0.003-0.045,0.005-0.075,0.023c0.011-0.021,0.02-0.043,0.022-0.066c0-0.218,0-0.426,0-0.633l0.059-0.092
						c0.004-0.005,0.008-0.017,0.015-0.019c0.08-0.024,1.041,0.535,0.616,1.354c-0.393,0.758-1.47,0.646-1.747-0.181
						c-0.036-0.108-0.129-0.49,0.186-0.875c0.287-0.351,0.745-0.361,0.796-0.326c0.039,0.027,0.056,0.095,0.076,0.138
						C22.999,22.534,22.999,22.742,22.999,22.95"/>
					<path fill="#55676F" d="M22.999,1.806c-0.323,0.338-1.09,0.049-1.557,0.071C17.83,2.04,12.276,4.005,8.618,7.933
						c-5.219,5.604-5.622,11.352-5.471,15.188c0.329,8.356,7.975,19.95,21.477,19.984c16.554,0.041,27.276-21.006,13.284-35.222
						C31.495,1.369,23.042,1.76,22.999,1.806c11.727-0.043,21.24,9.47,21.24,21.197c0,11.727-9.513,21.23-21.24,21.23
						S1.767,34.729,1.767,23.003c0-11.727,9.504-21.24,21.231-21.24C22.999,1.763,22.999,1.777,22.999,1.806"/>
					<path fill="#9EAAB3" d="M37.911,24.75c-1.331-0.566-7.732-4.75-9.898-8.093C21.39,6.432,23.983,5.026,24.835,4.564
						c6.716-3.642,20.573,8.559,17.436,18.15C41.154,26.132,38.882,25.164,37.911,24.75"/>
					<path fill="#637680" d="M22.999,22.95c0,0.008,0.004,0.043,0.028,0.071l0-0.001h-0.001l-0.004-0.003
						c-0.016-0.009-0.034-0.013-0.052-0.015c0.001,0,0.002-0.001,0.004-0.001L22.981,23c0.013-0.004,0.026-0.009,0.037-0.018
						l-0.001,0.001l-0.001,0.002l-0.003,0.004c-0.008,0.017-0.013,0.033-0.014,0.051c0-0.027-0.006-0.049-0.018-0.065l0.003,0.003
						c0.018,0.012,0.039,0.023,0.077,0.025c-0.03,0-0.053,0.004-0.084,0.023C22.988,23.002,22.996,22.923,22.999,22.95
						c0-0.188,0-0.376,0-0.563l0.052-0.063c0.004-0.004,0.007-0.011,0.013-0.013c0.075-0.018,0.967,0.511,0.507,1.261
						c-0.41,0.668-1.35,0.414-1.524-0.241c-0.221-0.832,0.722-1.153,0.887-1.046c0.03,0.02,0.048,0.07,0.066,0.102
						C22.999,22.574,22.999,22.762,22.999,22.95"/>
					<path fill="#61747E" d="M22.999,22.95c0,0.008,0.004,0.043,0.028,0.071l0-0.001h-0.001l-0.004-0.003
						c-0.015-0.008-0.033-0.009-0.048-0.016L22.981,23c0.013-0.004,0.026-0.009,0.037-0.018l-0.001,0.001l-0.001,0.002l-0.003,0.004
						c-0.008,0.017-0.013,0.033-0.014,0.051c0-0.027-0.006-0.049-0.018-0.065l0.003,0.003c0.018,0.012,0.039,0.023,0.077,0.025
						c-0.03,0-0.053,0.004-0.084,0.023C22.987,23.002,22.996,22.923,22.999,22.95c0-0.167,0-0.335,0-0.502l0.044-0.034
						c0.003-0.002,0.007-0.006,0.01-0.006c0.124-0.015,0.873,0.568,0.396,1.159c-0.47,0.581-1.243,0.181-1.311-0.356
						c-0.089-0.706,0.669-0.905,0.805-0.828c0.022,0.013,0.041,0.044,0.056,0.065C22.999,22.615,22.999,22.783,22.999,22.95"/>
					<path fill="#5F727B" d="M22.999,22.95c0,0.008,0.004,0.043,0.028,0.071l0-0.001h-0.001l-0.004-0.003
						c-0.016-0.009-0.033-0.014-0.052-0.015c0.001,0,0.002-0.001,0.004-0.001L22.981,23c0.013-0.004,0.026-0.009,0.037-0.018
						l-0.001,0.001l-0.001,0.002l-0.003,0.004c-0.008,0.017-0.013,0.033-0.014,0.051c0-0.027-0.006-0.049-0.018-0.065l0.003,0.003
						c0.018,0.012,0.039,0.023,0.077,0.025c-0.016,0-0.05,0-0.084,0.023C22.987,23.002,22.996,22.923,22.999,22.95
						c0-0.147,0-0.294,0-0.44l0.037-0.005c0.097-0.006,0.782,0.472,0.314,1.02c-0.374,0.438-1.041,0.15-1.099-0.342
						c-0.068-0.571,0.544-0.818,0.748-0.673C22.999,22.656,22.999,22.803,22.999,22.95"/>
					<path fill="#5D7079" d="M22.999,22.95c0,0.008,0.004,0.043,0.028,0.071l0-0.001h-0.001l-0.004-0.003
						c-0.016-0.009-0.033-0.014-0.052-0.015c0.001,0,0.002-0.001,0.004-0.001L22.981,23c0.013-0.004,0.026-0.009,0.037-0.018
						l-0.001,0.001l-0.001,0.002l-0.003,0.004c-0.009,0.016-0.013,0.033-0.014,0.051c0-0.027-0.006-0.049-0.018-0.065l0.003,0.003
						c0.018,0.012,0.039,0.023,0.077,0.025c-0.016,0-0.05,0-0.084,0.023C22.987,23.002,22.996,22.923,22.999,22.95
						c0-0.126,0-0.253,0-0.379l0.03,0.024c0.008,0.008,0.023,0.013,0.034,0.017c0.056,0.023,0.177,0.11,0.265,0.242
						c0.104,0.157,0.085,0.311,0.084,0.317c0,0.005-0.064,0.441-0.52,0.454c-0.377,0.01-0.744-0.517-0.382-0.896
						c0.01-0.01,0.098-0.1,0.226-0.141c0.086-0.028,0.177-0.003,0.265-0.017C22.999,22.697,22.999,22.824,22.999,22.95"/>
					<path fill="#53646D" d="M22.999,1.793c-0.358,0.375-1.208,0.058-1.727,0.082c-3.74,0.178-9.306,2.296-12.708,6.001
						C4.366,12.449,2.631,17.31,2.939,23.64c0.48,9.85,9.667,20.345,22.082,19.656c19.405-1.077,24.901-24.298,12.64-35.655
						C30.597,1.098,23.038,1.752,22.999,1.793c11.727-0.031,21.24,9.482,21.24,21.209c0,11.727-9.513,21.23-21.24,21.23
						S1.767,34.729,1.767,23.003c0-11.727,9.504-21.24,21.231-21.24C22.999,1.763,22.999,1.773,22.999,1.793"/>
					<path fill="#5B6E77" d="M22.999,22.95c0,0.005,0.004,0.042,0.028,0.071l0-0.001h-0.001l-0.004-0.003
						c-0.016-0.009-0.033-0.014-0.052-0.015c0.001,0,0.002-0.001,0.004-0.001L22.981,23c0.013-0.004,0.026-0.009,0.037-0.018
						l-0.001,0.001l-0.001,0.002l-0.003,0.004c-0.009,0.016-0.013,0.033-0.014,0.051c0-0.027-0.006-0.049-0.018-0.065l0.003,0.003
						c0.018,0.012,0.039,0.023,0.077,0.025c-0.037,0-0.066,0.009-0.088,0.026C22.99,23.006,22.996,22.921,22.999,22.95
						c0-0.106,0-0.212,0-0.318l0.022,0.053c0.001,0.004,0.001,0.009,0.003,0.012c0.024,0.028,0.061,0.035,0.088,0.058
						c0.036,0.031,0.07,0.064,0.1,0.102c0.017,0.021,0.033,0.042,0.047,0.064c0.078,0.128,0.06,0.22,0.054,0.25
						c-0.02,0.097-0.144,0.364-0.452,0.338c-0.332-0.028-0.541-0.478-0.251-0.731c0.151-0.133,0.295-0.127,0.356-0.103
						c0.001,0,0.003,0.002,0.005,0.002c0.015-0.005,0.018-0.032,0.027-0.045C22.999,22.738,22.999,22.844,22.999,22.95"/>
					<path fill="#596B74" d="M22.999,22.95c0,0.001,0.004,0.044,0.028,0.071l0-0.001h-0.001l-0.004-0.003
						c-0.016-0.009-0.033-0.014-0.052-0.015c0.001,0,0.002-0.001,0.004-0.001L22.981,23c0.013-0.004,0.026-0.009,0.037-0.018
						l-0.001,0.001l-0.001,0.002l-0.003,0.004c-0.009,0.016-0.013,0.033-0.014,0.051c0-0.027-0.006-0.049-0.018-0.065l0.003,0.003
						c0.031,0.023,0.065,0.024,0.077,0.025c-0.037,0-0.066,0.009-0.088,0.026C22.99,23.006,22.996,22.921,22.999,22.95
						c0-0.085,0-0.171,0-0.257l0.015,0.082c0,0.005-0.001,0.013,0.001,0.018c0.002,0.004,0.009,0.006,0.013,0.008
						c0.032,0.021,0.139,0.138,0.162,0.177s0.053,0.092,0.031,0.17c-0.073,0.262-0.299,0.263-0.372,0.242
						c-0.273-0.076-0.37-0.431-0.089-0.593c0.077-0.044,0.167-0.054,0.219-0.023c0.001,0,0.002,0.002,0.003,0.002
						c0.022-0.011,0.01-0.058,0.017-0.082C22.999,22.779,22.999,22.865,22.999,22.95"/>
					<path fill="#A1ACB5" d="M38.981,24.259c-1.749-0.465-7.876-4.849-10.309-8.437c-2.934-4.326-5.839-9.786-3.024-11.229
						c5.689-2.917,19.137,7.285,16.597,17.347C42.059,22.679,41.491,24.927,38.981,24.259"/>
					<path fill="#576972" d="M22.999,22.95c0,0.001,0.004,0.044,0.028,0.071l0-0.001h-0.001l-0.004-0.003
						c-0.016-0.009-0.033-0.014-0.052-0.015c0.001,0,0.002-0.001,0.004-0.001L22.981,23c0.013-0.004,0.026-0.009,0.037-0.018
						l-0.001,0.001l-0.001,0.002l-0.003,0.004c-0.009,0.016-0.013,0.033-0.014,0.051c0-0.027-0.006-0.049-0.018-0.065l0.003,0.003
						c0.031,0.023,0.065,0.024,0.077,0.025c-0.013,0-0.053,0-0.086,0.024C22.988,23.004,22.996,22.922,22.999,22.95
						c0-0.065,0-0.13,0-0.196l0.007,0.111c-0.001,0.055,0.063,0.108,0.083,0.123c0.082,0.063,0.049,0.146,0.008,0.206
						c-0.069,0.099-0.208,0.138-0.329,0.013c-0.155-0.16-0.004-0.361,0.161-0.36c0.033,0,0.05,0.015,0.06,0.024
						c0.002-0.035,0.004-0.082,0.009-0.117C22.999,22.82,22.999,22.885,22.999,22.95"/>
					<g>
						<path fill="#55676F" d="M22.999,22.95c0-0.044,0-0.089,0-0.134c0,0.042,0,0.098,0,0.14l0,0.004L22.999,22.95L22.999,22.95"/>
						<path fill="#55676F" d="M22.988,23.019c-0.006,0.003-0.012,0.006-0.017,0.011c0.006-0.007,0.011-0.016,0.015-0.024
							l-0.001,0.004c-0.001,0.003-0.006,0.007-0.001,0.011C22.985,23.021,22.987,23.019,22.988,23.019
							C22.988,23.019,22.988,23.019,22.988,23.019"/>
						<path fill="#55676F" d="M23.006,22.983c0.005,0.014,0.011,0.027,0.021,0.038l0-0.001h-0.001l-0.004-0.003
							c-0.016-0.009-0.033-0.014-0.052-0.015c0.001-0.001,0.002-0.001,0.004-0.001L22.981,23c0.013-0.004,0.026-0.008,0.037-0.018
							l-0.001,0.001l-0.001,0.002l-0.003,0.004c-0.009,0.016-0.013,0.033-0.014,0.051c0-0.027-0.006-0.049-0.018-0.065l0.003,0.003
							c0.014,0.01,0.03,0.017,0.046,0.021h0c0.041,0.017,0.037,0.137-0.057,0.171c-0.063,0.023-0.187-0.069-0.147-0.158
							c0.042-0.096,0.16-0.09,0.173-0.053c0,0.001,0,0.003,0.001,0.004l0.002,0.011L23.006,22.983"/>
						<path fill="#55676F" d="M22.999,22.95c0,0.002,0,0.004,0.001,0.006l-0.002-0.128l0.001-0.012
							C22.999,22.861,22.999,22.906,22.999,22.95"/>
					</g>
					<g>
						<path fill="#53646D" d="M22.999,22.95c0-0.024,0-0.049,0-0.073c0,0.023,0,0.055,0,0.078
							C22.999,22.953,22.999,22.952,22.999,22.95"/>
						<path fill="#53646D" d="M23.026,23.021c0,0-0.001-0.001-0.001-0.001l-0.004-0.003c-0.016-0.009-0.033-0.014-0.052-0.015
							c0.001-0.001,0.002-0.001,0.004-0.001L22.981,23c0.013-0.004,0.026-0.008,0.037-0.018l-0.001,0.001l-0.001,0.002l-0.003,0.004
							c-0.009,0.016-0.013,0.033-0.014,0.051c0-0.038-0.013-0.059-0.018-0.065l0.002,0.002c0.025,0.033,0.023,0.093-0.009,0.087
							c-0.033-0.005-0.054-0.044-0.037-0.057c0.018-0.013,0.066-0.014,0.086,0.01l0.002,0.003L23.026,23.021"/>
						<path fill="#53646D" d="M22.999,22.95c0,0.001,0,0.002,0,0.003c0-0.023,0-0.053,0-0.076
							C22.999,22.901,22.999,22.926,22.999,22.95"/>
					</g>
					<path fill="#51626A" d="M22.999,1.783c-0.359,0.375-1.21,0.056-1.729,0.079c-9.175,0.42-19.073,9.041-18.605,20.741
						c0.478,11.964,10.142,21.127,22,20.861C42.579,43.061,50.962,19.959,37.662,7.64C30.598,1.095,23.038,1.742,22.999,1.783
						c11.727-0.02,21.24,9.493,21.24,21.22c0,11.727-9.513,21.23-21.24,21.23S1.767,34.729,1.767,23.003
						c0-11.727,9.504-21.24,21.231-21.24C22.999,1.763,22.999,1.77,22.999,1.783"/>
					<g>
						<polyline fill="#51626A" points="22.999,22.95 22.999,22.938 22.999,22.951 22.999,22.95 						"/>
						<polyline fill="#51626A" points="22.999,22.95 22.999,22.951 22.999,22.938 22.999,22.95 						"/>
					</g>
					<path fill="#A4AEB7" d="M39.024,23.412c-1.772-0.581-7.281-4.727-9.741-8.362c-5.952-8.799-3.82-9.878-2.909-10.338
						c5.164-2.611,17.865,7.136,15.814,16.458C41.515,24.229,39.641,23.614,39.024,23.412"/>
					<path fill="#4F6068" d="M22.999,1.774c-0.359,0.376-1.212,0.054-1.732,0.077C18.992,1.952,13.11,2.819,7.626,8.686
						c-2.034,2.177-5.4,7.016-5.081,14.971c0.345,8.606,8.228,20.325,22.13,19.944c12.899-0.354,23.724-13.66,17.967-28.687
						c1.028,2.494,1.596,5.225,1.596,8.088c0,11.727-9.513,21.23-21.24,21.23S1.767,34.729,1.767,23.003
						c0-11.727,9.504-21.24,21.231-21.24C22.999,1.763,22.999,1.767,22.999,1.774"/>
					<path fill="#A6B0B8" d="M39.023,22.552c-4.341-1.643-16.74-15.55-11.932-17.694C32.27,2.55,44.81,13.055,41.705,21.63
						C41.296,22.761,40.395,23.07,39.023,22.552"/>
					<path fill="#4D5D65" d="M22.999,1.769c-0.36,0.376-1.214,0.052-1.734,0.074C16.947,2.027,11.434,4.566,8.44,7.747
						c-2.752,2.924-6.373,7.756-6.043,15.916c0.404,10.014,9.042,20.528,22.292,20.055c10.958-0.393,21.534-10.604,19.188-24.629
						c0.236,1.269,0.36,2.577,0.36,3.915c0,11.727-9.513,21.23-21.24,21.23S1.767,34.729,1.767,23.003
						c0-11.727,9.504-21.24,21.231-21.24C22.999,1.763,22.999,1.765,22.999,1.769"/>
					<path fill="#A8B2BA" d="M38.976,21.675C35.266,20.011,23.217,7.07,27.8,5.032c1.836-0.816,6.915,0.669,10.387,4.769
						c4.604,5.438,4.048,10.275,3.324,11.422C40.86,22.254,40.059,22.16,38.976,21.675"/>
					<path fill="#4B5B63" d="M22.999,1.765c-0.361,0.376-1.215,0.05-1.736,0.072c-4.325,0.18-9.85,2.708-12.852,5.879
						c-1.782,1.882-6.514,6.882-6.147,15.952c0.41,10.123,9.104,20.704,22.437,20.148c7.439-0.311,19.321-6.358,19.533-21.265
						c0.003,0.15,0.005,0.301,0.005,0.452c0,11.727-9.513,21.23-21.24,21.23S1.767,34.729,1.767,23.003
						c0-11.727,9.504-21.24,21.231-21.24C22.999,1.763,22.999,1.763,22.999,1.765"/>
					<path fill="#AAB4BC" d="M39.872,21.178c-1.059-0.171-4.202-1.524-10.502-10.36c-0.033-0.046-3.293-4.668-0.864-5.582
						C30.272,4.572,34.9,6.039,38.13,9.85c4.324,5.103,3.921,9.641,3.296,10.63C41.152,20.912,40.377,21.26,39.872,21.178"/>
					<path fill="#495960" d="M22.999,1.763c-0.361,0.376-1.216,0.05-1.737,0.071C11.07,2.249,2.13,11.654,2.13,21.96
						c0,14.968,12.453,21.965,20.869,21.98c12.717,0.024,19.83-9.384,21.056-18.136c-1.372,10.401-10.278,18.429-21.056,18.429
						c-11.727,0-21.231-9.504-21.231-21.23C1.767,11.276,11.271,1.763,22.999,1.763L22.999,1.763"/>
					<path fill="#ADB6BD" d="M40.594,20.376C36.383,20.324,27.281,8.103,28.501,6.042c1.307-2.211,10.59,1.243,12.839,10.06
						c0.371,1.453,0.491,3.788-0.698,4.267C40.628,20.374,40.608,20.375,40.594,20.376"/>
					<path fill="#47565E" d="M18.845,2.169C-1.277,7.016-3.07,31.131,11.626,40.522c12.131,7.753,27.259,2.284,31.738-11.474
						c-2.605,8.78-10.739,15.185-20.366,15.185c-11.727,0-21.231-9.504-21.231-21.23c0-10.844,8.127-19.795,18.625-21.082
						C19.928,1.996,19.306,2.077,18.845,2.169"/>
					<path fill="#AFB8BF" d="M39.605,19.49C36.742,18.695,28.11,8.456,29.258,6.306c1.174-2.201,9.291,1.397,11.553,8.42
						c1.236,3.836,0.19,4.66-0.317,4.835C40.241,19.649,39.863,19.562,39.605,19.49"/>
					<path fill="#B1B9C0" d="M40.096,18.73C36.813,18.206,29.239,8.261,30.03,6.617c0.99-2.056,8.642,1.778,10.652,8.169
						c0.553,1.758,0.654,3.668-0.365,3.973C40.253,18.778,40.161,18.741,40.096,18.73"/>
					<path fill="#44545B" d="M14.965,3.336c-18.815,8.113-16.063,32.618,0.07,39.155c8.472,3.433,20.502,1.813,26.895-9.853
						c-3.514,6.883-10.674,11.595-18.931,11.595c-11.727,0-21.231-9.504-21.231-21.23c0-9.507,6.247-17.559,14.859-20.267
						c-0.469,0.168-1.094,0.393-1.563,0.561C15.035,3.31,14.995,3.324,14.965,3.336"/>
					<path fill="#B3BBC2" d="M39.102,17.634c-1.743-0.736-9.076-8.743-8.259-10.643c0.73-1.698,6.985,0.809,9.587,7.526
						c0.012,0.03,1.114,2.992-0.354,3.357C39.784,17.948,39.38,17.751,39.102,17.634"/>
					<path fill="#B5BCC3" d="M38.696,16.545c-1.57-0.813-7.523-7.552-6.982-9.082c0.083-0.236,0.403-0.469,0.646-0.531
						c0.254-0.064,2.823,0.263,5.367,3.267c2.706,3.194,2.902,5.677,2.668,6.22c-0.1,0.23-0.365,0.523-0.611,0.568
						C39.438,17.051,39.009,16.707,38.696,16.545"/>
					<path fill="#B7BEC4" d="M38.767,15.677c-2.719-1.4-6.351-6.998-6.138-7.677c0.071-0.23,0.378-0.477,0.615-0.518
						c0.018-0.003,2.189,0.229,4.377,2.809c0.616,0.727,1.301,1.588,1.702,2.461c0.52,1.126,0.672,2.684,0.67,2.69
						c-0.097,0.218-0.389,0.461-0.625,0.493C39.174,15.961,38.941,15.767,38.767,15.677"/>
					<path fill="#B8C0C6" d="M37.987,14.244c-0.715-0.508-1.662-1.44-2.304-2.267c-0.332-0.427-0.718-0.812-0.999-1.277
						c-0.011-0.016-0.972-1.74-0.932-1.913c0.054-0.227,0.329-0.495,0.558-0.542c0.318-0.065,2.333,1.229,3.147,2.189
						c1.879,2.216,1.961,3.818,1.957,3.829c-0.081,0.218-0.398,0.441-0.631,0.452C38.507,14.727,38.214,14.405,37.987,14.244"/>
					<path fill="#BAC1C7" d="M37.732,12.968c-0.403-0.042-2.512-2.813-2.498-2.926c0.029-0.229,0.274-0.549,0.503-0.584
						c0.077-0.012,1.414,1.221,1.425,1.234c0.354,0.416,1.319,1.777,1.267,1.931C38.352,12.843,37.964,12.992,37.732,12.968"/>
					<path fill="#4F6068" d="M32.847,4.18c-1.989-0.946-4.995-2.375-9.848-2.406c4.108-0.012,7.945,1.156,11.196,3.177
						C33.79,4.72,33.259,4.396,32.847,4.18"/>
					<path fill="#4D5D65" d="M29.132,2.662c-1.743-0.449-3.39-0.874-6.133-0.894c2.561-0.006,5.016,0.448,7.291,1.279
						C29.941,2.932,29.482,2.766,29.132,2.662"/>
					<path fill="#4B5B63" d="M25.104,1.866c-0.63-0.05-1.474-0.097-2.106-0.102c1.356-0.002,2.683,0.125,3.969,0.369
						c-0.506-0.075-1.181-0.174-1.687-0.249C25.228,1.879,25.158,1.871,25.104,1.866"/>
					<path fill="#495960" d="M22.999,1.763c0.254,0,0.507,0.004,0.758,0.013C23.529,1.772,23.158,1.925,22.999,1.763"/>
				</g>
			</g>
			<g>
				<path fill="#687B85" d="M22.999,26.763c-2.11-0.019-3.742-1.65-3.76-3.76c0.018-2.116,1.66-3.753,3.76-3.77
					c2.106,0.015,3.753,1.662,3.768,3.77C26.751,25.104,25.114,26.745,22.999,26.763z"/>
			</g>
		</g>
	</g>
</g>
<g>
	<rect x="7.909" y="14.87" fill="#828383" width="6.459" height="16.145"/>
	<polygon fill="#828383" points="26.604,30.931 15.118,22.86 26.604,14.79 	"/>
	<polygon fill="#828383" points="38.091,30.931 26.604,22.86 38.091,14.79 	"/>
</g>
<g enable-background="new    ">
	<g>
		<defs>
			<path id="SVGID_7_" d="M85.054,25.236c0,10.485-8.505,18.999-19,18.999C76.549,44.235,85.054,35.722,85.054,25.236z"/>
		</defs>
		<clipPath id="SVGID_8_">
			<use xlink:href="#SVGID_7_"  overflow="visible"/>
		</clipPath>
		<g clip-path="url(#SVGID_8_)" enable-background="new    ">
			<path fill="#727D96" d="M85.054,25.236c0,0.851-0.057,1.687-0.164,2.507C84.997,26.923,85.054,26.087,85.054,25.236"/>
			<path fill="#707A93" d="M84.89,27.744c-0.131,0.991-0.338,1.958-0.616,2.896C84.552,29.702,84.759,28.734,84.89,27.744"/>
			<path fill="#6D778E" d="M84.273,30.638c-0.327,1.111-0.756,2.179-1.272,3.193C83.518,32.816,83.946,31.749,84.273,30.638"/>
			<path fill="#6A748B" d="M83.001,33.833c-3.139,6.17-9.549,10.402-16.947,10.402C73.454,44.235,79.864,40.003,83.001,33.833"/>
		</g>
	</g>
</g>
</svg>
