<?xml version="1.0" encoding="utf-8"?>
<!-- Generator: Adobe Illustrator 15.0.2, SVG Export Plug-In . SVG Version: 6.00 Build 0)  -->
<!DOCTYPE svg PUBLIC "-//W3C//DTD SVG 1.1//EN" "http://www.w3.org/Graphics/SVG/1.1/DTD/svg11.dtd">
<svg version="1.1" id="Layer_1" xmlns="http://www.w3.org/2000/svg"  x="0px" y="0px"
	 width="46px" height="30px" viewBox="0 0 46 30" enable-background="new 0 0 46 30" xml:space="preserve">
<g>
	<line fill="none" stroke="#646567" stroke-miterlimit="10" x1="7.368" y1="7.276" x2="2.776" y2="21.943"/>
	<line fill="none" stroke="#646567" stroke-miterlimit="10" x1="7.368" y1="7.276" x2="11.819" y2="21.891"/>
	
		<linearGradient id="SVGID_1_" gradientUnits="userSpaceOnUse" x1="381.0996" y1="811.8545" x2="413.1162" y2="811.8545" gradientTransform="matrix(1 0 0 1 -374 -805)">
		<stop  offset="0.0056" style="stop-color:#BBBCBE"/>
		<stop  offset="0.2921" style="stop-color:#989B9F"/>
		<stop  offset="0.6517" style="stop-color:#BFBEC2"/>
		<stop  offset="0.8652" style="stop-color:#9D9FA4"/>
		<stop  offset="1" style="stop-color:#A8AAAD"/>
		<stop  offset="1" style="stop-color:#C4C6CA"/>
	</linearGradient>
	<path fill="url(#SVGID_1_)" stroke="#646567" stroke-miterlimit="10" d="M39.116,6.854c0-0.234-0.122-0.423-0.271-0.423H7.372
		C7.221,6.432,7.1,6.62,7.1,6.854l0,0c0,0.233,0.121,0.422,0.272,0.422h31.473C38.994,7.276,39.116,7.087,39.116,6.854L39.116,6.854
		z"/>
	
		<linearGradient id="SVGID_2_" gradientUnits="userSpaceOnUse" x1="395.8076" y1="819.7236" x2="398.6006" y2="819.7236" gradientTransform="matrix(1 0 0 1 -374 -805)">
		<stop  offset="0.0056" style="stop-color:#BBBCBE"/>
		<stop  offset="0.2921" style="stop-color:#989B9F"/>
		<stop  offset="0.6517" style="stop-color:#BFBEC2"/>
		<stop  offset="0.8652" style="stop-color:#9D9FA4"/>
		<stop  offset="1" style="stop-color:#A8AAAD"/>
		<stop  offset="1" style="stop-color:#C4C6CA"/>
	</linearGradient>
	<path fill="url(#SVGID_2_)" stroke="#646567" stroke-miterlimit="10" d="M24.601,24.734c0,0.506-0.459,0.918-1.026,0.918h-0.74
		c-0.566,0-1.026-0.412-1.026-0.918V4.713c0-0.508,0.46-0.918,1.026-0.918h0.74c0.567,0,1.026,0.41,1.026,0.918V24.734z"/>
	
		<linearGradient id="SVGID_3_" gradientUnits="userSpaceOnUse" x1="389.7871" y1="825.626" x2="404.6416" y2="825.626" gradientTransform="matrix(1 0 0 1 -374 -805)">
		<stop  offset="0.0056" style="stop-color:#BBBCBE"/>
		<stop  offset="0.2921" style="stop-color:#989B9F"/>
		<stop  offset="0.6517" style="stop-color:#BFBEC2"/>
		<stop  offset="0.8652" style="stop-color:#9D9FA4"/>
		<stop  offset="1" style="stop-color:#A8AAAD"/>
		<stop  offset="1" style="stop-color:#C4C6CA"/>
	</linearGradient>
	<path fill="url(#SVGID_3_)" stroke="#646567" stroke-miterlimit="10" d="M30.642,23.339c0,0.971-0.647,1.758-1.448,1.758H17.236
		c-0.8,0-1.449-0.787-1.449-1.758l1.209-5.424c0-0.972,0.771-1.759,1.568-1.759h9.422c0.799,0,1.569,0.787,1.569,1.759
		L30.642,23.339z"/>
	
		<linearGradient id="SVGID_4_" gradientUnits="userSpaceOnUse" x1="389.7871" y1="830.6709" x2="404.6416" y2="830.6709" gradientTransform="matrix(1 0 0 1 -374 -805)">
		<stop  offset="0.0056" style="stop-color:#BBBCBE"/>
		<stop  offset="0.2921" style="stop-color:#989B9F"/>
		<stop  offset="0.6517" style="stop-color:#BFBEC2"/>
		<stop  offset="0.8652" style="stop-color:#9D9FA4"/>
		<stop  offset="1" style="stop-color:#A8AAAD"/>
		<stop  offset="1" style="stop-color:#C4C6CA"/>
	</linearGradient>
	<path fill="url(#SVGID_4_)" stroke="#646567" stroke-miterlimit="10" d="M30.642,25.671c0,0.295-0.276,0.534-0.619,0.534H16.408
		c-0.343,0-0.621-0.239-0.621-0.534l0,0c0-0.294,0.278-0.534,0.621-0.534h13.615C30.366,25.137,30.642,25.377,30.642,25.671
		L30.642,25.671z"/>
	
		<linearGradient id="SVGID_5_" gradientUnits="userSpaceOnUse" x1="393.2373" y1="820.6953" x2="401.0869" y2="820.6953" gradientTransform="matrix(1 0 0 1 -374 -805)">
		<stop  offset="0.0056" style="stop-color:#BBBCBE"/>
		<stop  offset="0.2921" style="stop-color:#989B9F"/>
		<stop  offset="0.6517" style="stop-color:#BFBEC2"/>
		<stop  offset="0.8652" style="stop-color:#9D9FA4"/>
		<stop  offset="1" style="stop-color:#A8AAAD"/>
		<stop  offset="1" style="stop-color:#C4C6CA"/>
	</linearGradient>
	<path fill="url(#SVGID_5_)" stroke="#646567" stroke-miterlimit="10" d="M27.087,15.695c0,0.253-0.447,0.461-0.998,0.461h-5.853
		c-0.553,0-0.999-0.208-0.999-0.461l0,0c0-0.255,0.446-0.461,0.999-0.461h5.853C26.64,15.234,27.087,15.44,27.087,15.695
		L27.087,15.695z"/>
	
		<radialGradient id="SVGID_6_" cx="395.5488" cy="811.8135" r="0.7485" gradientTransform="matrix(1 0 0 1 -374 -805)" gradientUnits="userSpaceOnUse">
		<stop  offset="0" style="stop-color:#989B9F"/>
		<stop  offset="0.0056" style="stop-color:#BBBCBE"/>
		<stop  offset="0.5032" style="stop-color:#BFBEC2"/>
		<stop  offset="0.6802" style="stop-color:#BDBCC0"/>
		<stop  offset="0.8227" style="stop-color:#B3B4B7"/>
		<stop  offset="0.9527" style="stop-color:#A5A5AA"/>
		<stop  offset="1" style="stop-color:#9D9FA4"/>
		<stop  offset="1" style="stop-color:#A8AAAD"/>
		<stop  offset="1" style="stop-color:#C4C6CA"/>
	</radialGradient>
	<path fill="url(#SVGID_6_)" stroke="#646567" stroke-miterlimit="10" d="M21.808,7.581c0,0.144-0.115,0.259-0.259,0.259l0,0
		c-0.145,0-0.26-0.115-0.26-0.259V6.047c0-0.144,0.115-0.259,0.26-0.259l0,0c0.144,0,0.259,0.115,0.259,0.259V7.581z"/>
	
		<radialGradient id="SVGID_7_" cx="398.8613" cy="811.8545" r="0.7485" gradientTransform="matrix(1 0 0 1 -374 -805)" gradientUnits="userSpaceOnUse">
		<stop  offset="0" style="stop-color:#989B9F"/>
		<stop  offset="0.0056" style="stop-color:#BBBCBE"/>
		<stop  offset="0.5032" style="stop-color:#BFBEC2"/>
		<stop  offset="0.6802" style="stop-color:#BDBCC0"/>
		<stop  offset="0.8227" style="stop-color:#B3B4B7"/>
		<stop  offset="0.9527" style="stop-color:#A5A5AA"/>
		<stop  offset="1" style="stop-color:#9D9FA4"/>
		<stop  offset="1" style="stop-color:#A8AAAD"/>
		<stop  offset="1" style="stop-color:#C4C6CA"/>
	</radialGradient>
	<path fill="url(#SVGID_7_)" stroke="#646567" stroke-miterlimit="10" d="M25.12,7.621c0,0.143-0.115,0.26-0.259,0.26l0,0
		c-0.143,0-0.26-0.117-0.26-0.26V6.087c0-0.144,0.117-0.26,0.26-0.26l0,0c0.144,0,0.259,0.116,0.259,0.26V7.621z"/>
	
		<linearGradient id="SVGID_8_" gradientUnits="userSpaceOnUse" x1="376.0264" y1="827.3311" x2="386.5713" y2="827.3311" gradientTransform="matrix(1 0 0 1 -374 -805)">
		<stop  offset="0.0056" style="stop-color:#BBBCBE"/>
		<stop  offset="0.2921" style="stop-color:#989B9F"/>
		<stop  offset="0.6517" style="stop-color:#BFBEC2"/>
		<stop  offset="0.8652" style="stop-color:#9D9FA4"/>
		<stop  offset="1" style="stop-color:#A8AAAD"/>
		<stop  offset="1" style="stop-color:#C4C6CA"/>
	</linearGradient>
	<path fill="url(#SVGID_8_)" stroke="#646567" stroke-miterlimit="10" d="M12.571,22.331c0,0.715-0.354,1.295-0.79,1.295H2.815
		c-0.436,0-0.789-0.58-0.789-1.295l0,0c0-0.715,0.354-1.295,0.789-1.295h8.966C12.218,21.036,12.571,21.616,12.571,22.331
		L12.571,22.331z"/>
	<line fill="none" stroke="#646567" stroke-miterlimit="10" x1="38.772" y1="7.396" x2="34.181" y2="22.064"/>
	<line fill="none" stroke="#646567" stroke-miterlimit="10" x1="38.772" y1="7.396" x2="43.224" y2="22.012"/>
	
		<linearGradient id="SVGID_9_" gradientUnits="userSpaceOnUse" x1="407.4297" y1="827.3037" x2="417.9736" y2="827.3037" gradientTransform="matrix(1 0 0 1 -374 -805)">
		<stop  offset="0.0056" style="stop-color:#BBBCBE"/>
		<stop  offset="0.2921" style="stop-color:#989B9F"/>
		<stop  offset="0.6517" style="stop-color:#BFBEC2"/>
		<stop  offset="0.8652" style="stop-color:#9D9FA4"/>
		<stop  offset="1" style="stop-color:#A8AAAD"/>
		<stop  offset="1" style="stop-color:#C4C6CA"/>
	</linearGradient>
	<path fill="url(#SVGID_9_)" stroke="#646567" stroke-miterlimit="10" d="M43.974,22.305c0,0.715-0.354,1.295-0.79,1.295h-8.965
		c-0.437,0-0.789-0.58-0.789-1.295l0,0c0-0.715,0.353-1.296,0.789-1.296h8.965C43.619,21.009,43.974,21.59,43.974,22.305
		L43.974,22.305z"/>
</g>
</svg>
